<?xml version="1.0" encoding="UTF-8" standalone="no"?>
<!-- Created with Inkscape (http://www.inkscape.org/) -->

<svg
   xmlns:dc="http://purl.org/dc/elements/1.1/"
   xmlns:cc="http://creativecommons.org/ns#"
   xmlns:rdf="http://www.w3.org/1999/02/22-rdf-syntax-ns#"
   xmlns:svg="http://www.w3.org/2000/svg"
   xmlns="http://www.w3.org/2000/svg"
   xmlns:xlink="http://www.w3.org/1999/xlink"
   xmlns:sodipodi="http://sodipodi.sourceforge.net/DTD/sodipodi-0.dtd"
   xmlns:inkscape="http://www.inkscape.org/namespaces/inkscape"
   width="205.14102mm"
   height="20.44689mm"
   viewBox="0 0 205.14102 20.44689"
   version="1.1"
   id="svg8"
   inkscape:version="0.92.4 (5da689c313, 2019-01-14)"
   sodipodi:docname="WAVE.svg">
  <defs
     id="defs2">
    <linearGradient
       inkscape:collect="always"
       id="linearGradient840">
      <stop
         style="stop-color:#860b84;stop-opacity:1"
         offset="0"
         id="stop836" />
      <stop
         id="stop850"
         offset="0.125"
         style="stop-color:#c600eb;stop-opacity:1" />
      <stop
         id="stop848"
         offset="0.25"
         style="stop-color:#372dff;stop-opacity:1" />
      <stop
         style="stop-color:#00d5d8;stop-opacity:1"
         offset="0.38870716"
         id="stop854" />
      <stop
         id="stop844"
         offset="0.5"
         style="stop-color:#01ff00;stop-opacity:1" />
      <stop
         style="stop-color:#daeb00;stop-opacity:1"
         offset="0.625"
         id="stop852" />
      <stop
         style="stop-color:#ff8d00;stop-opacity:1"
         offset="0.75"
         id="stop846" />
      <stop
         id="stop856"
         offset="0.875"
         style="stop-color:#eb1500;stop-opacity:1" />
      <stop
         style="stop-color:#8f1713;stop-opacity:1"
         offset="1"
         id="stop838" />
    </linearGradient>
    <linearGradient
       inkscape:collect="always"
       xlink:href="#linearGradient840"
       id="linearGradient842"
       x1="-265.81177"
       y1="180.00443"
       x2="-70.826431"
       y2="180.00443"
       gradientUnits="userSpaceOnUse"
       gradientTransform="matrix(0.98932458,0,0,0.54345156,-1.7880331,83.908873)" />
  </defs>
  <sodipodi:namedview
     id="base"
     pagecolor="#ffffff"
     bordercolor="#666666"
     borderopacity="1.0"
     inkscape:pageopacity="0.0"
     inkscape:pageshadow="2"
     inkscape:zoom="0.7"
     inkscape:cx="272.40093"
     inkscape:cy="58.143093"
     inkscape:document-units="mm"
     inkscape:current-layer="layer1"
     showgrid="false"
     fit-margin-top="0"
     fit-margin-left="0"
     fit-margin-right="0"
     fit-margin-bottom="0"
     inkscape:window-width="1366"
     inkscape:window-height="697"
     inkscape:window-x="-8"
     inkscape:window-y="-8"
     inkscape:window-maximized="1" />
  <metadata
     id="metadata5">
    <rdf:RDF>
      <cc:Work
         rdf:about="">
        <dc:format>image/svg+xml</dc:format>
        <dc:type
           rdf:resource="http://purl.org/dc/dcmitype/StillImage" />
        <dc:title />
      </cc:Work>
    </rdf:RDF>
  </metadata>
  <g
     inkscape:label="Layer 1"
     inkscape:groupmode="layer"
     id="layer1"
     transform="translate(270.06123,-172.39151)">
    <g
       id="g1014">
      <rect
         ry="4.5721879"
         y="173.45253"
         x="-267.37976"
         height="18.589436"
         width="199.77806"
         id="rect994"
         style="opacity:1;fill:#000000;fill-opacity:0.47430833;fill-rule:evenodd;stroke:none;stroke-width:224.21292114;stroke-linecap:square;stroke-linejoin:miter;stroke-miterlimit:4;stroke-dasharray:none;stroke-dashoffset:0;stroke-opacity:1;paint-order:markers stroke fill" />
      <rect
         ry="1.9962647"
         y="179.73628"
         x="-264.76215"
         height="3.9925294"
         width="192.90379"
         id="rect826"
         style="opacity:1;fill:url(#linearGradient842);fill-opacity:1;fill-rule:evenodd;stroke:none;stroke-width:153.98170471;stroke-linecap:square;stroke-linejoin:miter;stroke-miterlimit:4;stroke-dasharray:none;stroke-dashoffset:0;stroke-opacity:1;paint-order:markers stroke fill" />
      <path
         inkscape:connector-curvature="0"
         id="rect858"
         d="m -243.11805,183.15746 c 0.14984,0 0.27046,0.14013 0.27046,0.3142 v 1.53151 c 0,0.17407 -0.12062,0.3142 -0.27046,0.3142 -0.14983,0 -0.27045,-0.14013 -0.27045,-0.3142 v -1.53151 c 0,-0.17407 0.12062,-0.3142 0.27045,-0.3142 z"
         style="opacity:1;fill:#ffffff;fill-opacity:1;fill-rule:evenodd;stroke:none;stroke-width:200.73814392;stroke-linecap:square;stroke-linejoin:miter;stroke-miterlimit:4;stroke-dasharray:none;stroke-dashoffset:0;stroke-opacity:1;paint-order:markers stroke fill" />
      <path
         inkscape:connector-curvature="0"
         id="rect860"
         d="m -264.49169,183.15746 c 0.14984,0 0.27046,0.14013 0.27046,0.3142 v 1.53151 c 0,0.17407 -0.12062,0.3142 -0.27046,0.3142 -0.14983,0 -0.27046,-0.14013 -0.27046,-0.3142 v -1.53151 c 0,-0.17407 0.12063,-0.3142 0.27046,-0.3142 z"
         style="opacity:1;fill:#ffffff;fill-opacity:1;fill-rule:evenodd;stroke:none;stroke-width:200.73814392;stroke-linecap:square;stroke-linejoin:miter;stroke-miterlimit:4;stroke-dasharray:none;stroke-dashoffset:0;stroke-opacity:1;paint-order:markers stroke fill" />
      <path
         inkscape:connector-curvature="0"
         id="rect860-4"
         d="m -93.502467,183.15746 c 0.149834,0 0.270459,0.14013 0.270459,0.3142 v 1.53151 c 0,0.17407 -0.120625,0.3142 -0.270459,0.3142 -0.149835,0 -0.270459,-0.14013 -0.270459,-0.3142 v -1.53151 c 0,-0.17407 0.120624,-0.3142 0.270459,-0.3142 z"
         style="opacity:1;fill:#ffffff;fill-opacity:1;fill-rule:evenodd;stroke:none;stroke-width:200.73814392;stroke-linecap:square;stroke-linejoin:miter;stroke-miterlimit:4;stroke-dasharray:none;stroke-dashoffset:0;stroke-opacity:1;paint-order:markers stroke fill" />
      <path
         inkscape:connector-curvature="0"
         id="rect908"
         d="m -114.87612,183.15746 c 0.14983,0 0.27045,0.14013 0.27045,0.3142 v 1.53151 c 0,0.17407 -0.12062,0.3142 -0.27045,0.3142 -0.14984,0 -0.27046,-0.14013 -0.27046,-0.3142 v -1.53151 c 0,-0.17407 0.12062,-0.3142 0.27046,-0.3142 z"
         style="opacity:1;fill:#ffffff;fill-opacity:1;fill-rule:evenodd;stroke:none;stroke-width:200.73814392;stroke-linecap:square;stroke-linejoin:miter;stroke-miterlimit:4;stroke-dasharray:none;stroke-dashoffset:0;stroke-opacity:1;paint-order:markers stroke fill" />
      <path
         inkscape:connector-curvature="0"
         id="rect910"
         d="m -136.24976,183.15746 c 0.14984,0 0.27046,0.14013 0.27046,0.3142 v 1.53151 c 0,0.17407 -0.12062,0.3142 -0.27046,0.3142 -0.14983,0 -0.27046,-0.14013 -0.27046,-0.3142 v -1.53151 c 0,-0.17407 0.12063,-0.3142 0.27046,-0.3142 z"
         style="opacity:1;fill:#ffffff;fill-opacity:1;fill-rule:evenodd;stroke:none;stroke-width:200.73814392;stroke-linecap:square;stroke-linejoin:miter;stroke-miterlimit:4;stroke-dasharray:none;stroke-dashoffset:0;stroke-opacity:1;paint-order:markers stroke fill" />
      <path
         inkscape:connector-curvature="0"
         id="rect912"
         d="m -157.62345,183.15746 c 0.14984,0 0.27046,0.14013 0.27046,0.3142 v 1.53151 c 0,0.17407 -0.12062,0.3142 -0.27046,0.3142 -0.14983,0 -0.27046,-0.14013 -0.27046,-0.3142 v -1.53151 c 0,-0.17407 0.12063,-0.3142 0.27046,-0.3142 z"
         style="opacity:1;fill:#ffffff;fill-opacity:1;fill-rule:evenodd;stroke:none;stroke-width:200.73814392;stroke-linecap:square;stroke-linejoin:miter;stroke-miterlimit:4;stroke-dasharray:none;stroke-dashoffset:0;stroke-opacity:1;paint-order:markers stroke fill" />
      <path
         inkscape:connector-curvature="0"
         id="rect914"
         d="m -178.99707,183.15746 c 0.14983,0 0.27046,0.14013 0.27046,0.3142 v 1.53151 c 0,0.17407 -0.12063,0.3142 -0.27046,0.3142 -0.14984,0 -0.27046,-0.14013 -0.27046,-0.3142 v -1.53151 c 0,-0.17407 0.12062,-0.3142 0.27046,-0.3142 z"
         style="opacity:1;fill:#ffffff;fill-opacity:1;fill-rule:evenodd;stroke:none;stroke-width:200.73814392;stroke-linecap:square;stroke-linejoin:miter;stroke-miterlimit:4;stroke-dasharray:none;stroke-dashoffset:0;stroke-opacity:1;paint-order:markers stroke fill" />
      <path
         inkscape:connector-curvature="0"
         id="rect916"
         d="m -200.37075,183.15746 c 0.14984,0 0.27046,0.14013 0.27046,0.3142 v 1.53151 c 0,0.17407 -0.12062,0.3142 -0.27046,0.3142 -0.14983,0 -0.27045,-0.14013 -0.27045,-0.3142 v -1.53151 c 0,-0.17407 0.12062,-0.3142 0.27045,-0.3142 z"
         style="opacity:1;fill:#ffffff;fill-opacity:1;fill-rule:evenodd;stroke:none;stroke-width:200.73814392;stroke-linecap:square;stroke-linejoin:miter;stroke-miterlimit:4;stroke-dasharray:none;stroke-dashoffset:0;stroke-opacity:1;paint-order:markers stroke fill" />
      <path
         inkscape:connector-curvature="0"
         id="rect918"
         d="m -221.74439,183.15746 c 0.14984,0 0.27046,0.14013 0.27046,0.3142 v 1.53151 c 0,0.17407 -0.12062,0.3142 -0.27046,0.3142 -0.14983,0 -0.27046,-0.14013 -0.27046,-0.3142 v -1.53151 c 0,-0.17407 0.12063,-0.3142 0.27046,-0.3142 z"
         style="opacity:1;fill:#ffffff;fill-opacity:1;fill-rule:evenodd;stroke:none;stroke-width:200.73814392;stroke-linecap:square;stroke-linejoin:miter;stroke-miterlimit:4;stroke-dasharray:none;stroke-dashoffset:0;stroke-opacity:1;paint-order:markers stroke fill" />
      <path
         inkscape:connector-curvature="0"
         id="rect920"
         d="m -72.128818,183.15746 c 0.149834,0 0.270459,0.14013 0.270459,0.3142 v 1.53151 c 0,0.17407 -0.120625,0.3142 -0.270459,0.3142 -0.149834,0 -0.270459,-0.14013 -0.270459,-0.3142 v -1.53151 c 0,-0.17407 0.120625,-0.3142 0.270459,-0.3142 z"
         style="opacity:1;fill:#ffffff;fill-opacity:1;fill-rule:evenodd;stroke:none;stroke-width:200.73814392;stroke-linecap:square;stroke-linejoin:miter;stroke-miterlimit:4;stroke-dasharray:none;stroke-dashoffset:0;stroke-opacity:1;paint-order:markers stroke fill" />
      <g
         id="text924"
         style="font-style:normal;font-variant:normal;font-weight:bold;font-stretch:normal;font-size:18.54703712px;line-height:1.25;font-family:'Minya Nouvelle';-inkscape-font-specification:'Minya Nouvelle Bold';font-variant-ligatures:normal;font-variant-caps:normal;font-variant-numeric:normal;font-feature-settings:normal;text-align:center;writing-mode:lr-tb;text-anchor:middle;opacity:1;fill:#ffffff;fill-opacity:1;fill-rule:evenodd;stroke:none;stroke-width:200.73814392;stroke-linecap:square;stroke-linejoin:miter;stroke-miterlimit:4;stroke-dasharray:none;stroke-dashoffset:0;stroke-opacity:1;paint-order:markers stroke fill"
         transform="scale(1.034971,0.96621064)"
         aria-label="10">
        <path
           inkscape:connector-curvature="0"
           id="path1169"
           style="font-style:normal;font-variant:normal;font-weight:bold;font-stretch:normal;font-size:3.37218833px;font-family:Arial;-inkscape-font-specification:'Arial Bold';fill:#ffffff;fill-opacity:1;stroke-width:200.73814392"
           d="m -70.235755,195.9234 h -0.462688 v -1.74372 q -0.253573,0.2371 -0.597707,0.35072 v -0.41988 q 0.181123,-0.0593 0.393531,-0.22393 0.212409,-0.16631 0.291444,-0.38695 h 0.37542 z" />
        <path
           inkscape:connector-curvature="0"
           id="path1171"
           style="font-style:normal;font-variant:normal;font-weight:bold;font-stretch:normal;font-size:3.37218833px;font-family:Arial;-inkscape-font-specification:'Arial Bold';fill:#ffffff;fill-opacity:1;stroke-width:200.73814392"
           d="m -68.760423,193.49964 q 0.350721,0 0.54831,0.25028 0.235461,0.29638 0.235461,0.98301 0,0.68497 -0.237107,0.98465 -0.195943,0.24699 -0.546664,0.24699 -0.352367,0 -0.568069,-0.27004 -0.215701,-0.27169 -0.215701,-0.96654 0,-0.68169 0.237107,-0.98136 0.195942,-0.24699 0.546663,-0.24699 z m 0,0.38365 q -0.08397,0 -0.149838,0.0543 -0.06586,0.0527 -0.102088,0.191 -0.04775,0.17948 -0.04775,0.6043 0,0.42481 0.04281,0.58453 0.04281,0.15807 0.107028,0.21076 0.06586,0.0527 0.149838,0.0527 0.08398,0 0.149839,-0.0527 0.06586,-0.0543 0.102087,-0.19265 0.04775,-0.17783 0.04775,-0.60264 0,-0.42482 -0.04281,-0.58289 -0.04281,-0.15972 -0.108674,-0.21241 -0.06422,-0.0543 -0.148192,-0.0543 z" />
      </g>
      <g
         id="text924-2"
         style="font-style:normal;font-variant:normal;font-weight:bold;font-stretch:normal;font-size:18.54703712px;line-height:1.25;font-family:'Minya Nouvelle';-inkscape-font-specification:'Minya Nouvelle Bold';font-variant-ligatures:normal;font-variant-caps:normal;font-variant-numeric:normal;font-feature-settings:normal;text-align:center;writing-mode:lr-tb;text-anchor:middle;opacity:1;fill:#ffffff;fill-opacity:1;fill-rule:evenodd;stroke:none;stroke-width:200.73814392;stroke-linecap:square;stroke-linejoin:miter;stroke-miterlimit:4;stroke-dasharray:none;stroke-dashoffset:0;stroke-opacity:1;paint-order:markers stroke fill"
         transform="scale(1.034971,0.96621064)"
         aria-label="9">
        <path
           inkscape:connector-curvature="0"
           id="path1166"
           style="font-style:normal;font-variant:normal;font-weight:bold;font-stretch:normal;font-size:3.37218833px;font-family:Arial;-inkscape-font-specification:'Arial Bold';fill:#ffffff;fill-opacity:1;stroke-width:200.73814392"
           d="m -90.92296,195.36356 0.447869,-0.0494 q 0.01647,0.13666 0.08562,0.20253 0.06916,0.0659 0.18277,0.0659 0.143252,0 0.243693,-0.13173 0.100442,-0.13172 0.128433,-0.54666 -0.174537,0.20253 -0.436342,0.20253 -0.284858,0 -0.492327,-0.219 -0.205822,-0.22064 -0.205822,-0.57301 0,-0.36718 0.217348,-0.59112 0.218995,-0.22558 0.556543,-0.22558 0.367187,0 0.602647,0.28486 0.23546,0.28321 0.23546,0.93361 0,0.66192 -0.245339,0.95501 -0.24534,0.29309 -0.638872,0.29309 -0.283211,0 -0.457748,-0.14983 -0.174537,-0.15149 -0.223935,-0.45117 z m 1.047223,-1.01099 q 0,-0.22394 -0.103734,-0.34743 -0.102088,-0.1235 -0.237107,-0.1235 -0.128433,0 -0.214055,0.10209 -0.08398,0.10044 -0.08398,0.33096 0,0.23382 0.09221,0.34414 0.09221,0.10867 0.23052,0.10867 0.133373,0 0.223935,-0.10538 0.09221,-0.10538 0.09221,-0.30955 z" />
      </g>
      <g
         id="text956"
         style="font-style:normal;font-variant:normal;font-weight:bold;font-stretch:normal;font-size:18.54703712px;line-height:1.25;font-family:'Minya Nouvelle';-inkscape-font-specification:'Minya Nouvelle Bold';font-variant-ligatures:normal;font-variant-caps:normal;font-variant-numeric:normal;font-feature-settings:normal;text-align:center;writing-mode:lr-tb;text-anchor:middle;opacity:1;fill:#ffffff;fill-opacity:1;fill-rule:evenodd;stroke:none;stroke-width:200.73814392;stroke-linecap:square;stroke-linejoin:miter;stroke-miterlimit:4;stroke-dasharray:none;stroke-dashoffset:0;stroke-opacity:1;paint-order:markers stroke fill"
         transform="scale(1.034971,0.96621064)"
         aria-label="8">
        <path
           inkscape:connector-curvature="0"
           id="path1163"
           style="font-style:normal;font-variant:normal;font-weight:bold;font-stretch:normal;font-size:3.37218833px;font-family:Arial;-inkscape-font-specification:'Arial Bold';fill:#ffffff;fill-opacity:1;stroke-width:200.73814392"
           d="m -111.17876,194.61931 q -0.17948,-0.0757 -0.26181,-0.20747 -0.0807,-0.13337 -0.0807,-0.29144 0,-0.27004 0.18771,-0.44622 0.18936,-0.17619 0.53679,-0.17619 0.34413,0 0.53349,0.17619 0.191,0.17618 0.191,0.44622 0,0.16795 -0.0873,0.29968 -0.0873,0.13007 -0.24534,0.19923 0.20088,0.0807 0.30462,0.23546 0.10538,0.15478 0.10538,0.35731 0,0.33425 -0.21406,0.54337 -0.21241,0.20911 -0.56642,0.20911 -0.32931,0 -0.54831,-0.17289 -0.25851,-0.20417 -0.25851,-0.55983 0,-0.19595 0.0971,-0.35896 0.0971,-0.16465 0.30626,-0.25357 z m 0.0955,-0.46598 q 0,0.13831 0.0774,0.2157 0.079,0.0774 0.20912,0.0774 0.13172,0 0.21076,-0.0774 0.079,-0.079 0.079,-0.21735 0,-0.13008 -0.079,-0.20747 -0.0774,-0.079 -0.20582,-0.079 -0.13338,0 -0.21241,0.079 -0.079,0.079 -0.079,0.20912 z m -0.0428,1.03405 q 0,0.191 0.0971,0.29803 0.0988,0.10703 0.24534,0.10703 0.14325,0 0.23711,-0.10209 0.0939,-0.10373 0.0939,-0.29803 0,-0.1696 -0.0955,-0.27169 -0.0955,-0.10373 -0.24205,-0.10373 -0.1696,0 -0.25357,0.11691 -0.0823,0.1169 -0.0823,0.25357 z" />
      </g>
      <g
         id="text960"
         style="font-style:normal;font-variant:normal;font-weight:bold;font-stretch:normal;font-size:18.54703712px;line-height:1.25;font-family:'Minya Nouvelle';-inkscape-font-specification:'Minya Nouvelle Bold';font-variant-ligatures:normal;font-variant-caps:normal;font-variant-numeric:normal;font-feature-settings:normal;text-align:center;writing-mode:lr-tb;text-anchor:middle;opacity:1;fill:#ffffff;fill-opacity:1;fill-rule:evenodd;stroke:none;stroke-width:200.73814392;stroke-linecap:square;stroke-linejoin:miter;stroke-miterlimit:4;stroke-dasharray:none;stroke-dashoffset:0;stroke-opacity:1;paint-order:markers stroke fill"
         transform="scale(1.034971,0.96621064)"
         aria-label="7">
        <path
           inkscape:connector-curvature="0"
           id="path1160"
           style="font-style:normal;font-variant:normal;font-weight:bold;font-stretch:normal;font-size:3.37218833px;font-family:Arial;-inkscape-font-specification:'Arial Bold';fill:#ffffff;fill-opacity:1;stroke-width:200.73814392"
           d="m -132.21833,194.01336 v -0.42976 h 1.58236 v 0.33591 q -0.19594,0.19265 -0.39847,0.55325 -0.20253,0.3606 -0.30956,0.7673 -0.10538,0.40506 -0.10373,0.72449 h -0.44623 q 0.0115,-0.50056 0.20583,-1.02087 0.19594,-0.52032 0.52196,-0.93032 z" />
      </g>
      <g
         id="text964"
         style="font-style:normal;font-variant:normal;font-weight:bold;font-stretch:normal;font-size:18.54703712px;line-height:1.25;font-family:'Minya Nouvelle';-inkscape-font-specification:'Minya Nouvelle Bold';font-variant-ligatures:normal;font-variant-caps:normal;font-variant-numeric:normal;font-feature-settings:normal;text-align:center;writing-mode:lr-tb;text-anchor:middle;opacity:1;fill:#ffffff;fill-opacity:1;fill-rule:evenodd;stroke:none;stroke-width:200.73814392;stroke-linecap:square;stroke-linejoin:miter;stroke-miterlimit:4;stroke-dasharray:none;stroke-dashoffset:0;stroke-opacity:1;paint-order:markers stroke fill"
         transform="scale(1.034971,0.96621064)"
         aria-label="6">
        <path
           inkscape:connector-curvature="0"
           id="path1157"
           style="font-style:normal;font-variant:normal;font-weight:bold;font-stretch:normal;font-size:3.37218833px;font-family:Arial;-inkscape-font-specification:'Arial Bold';fill:#ffffff;fill-opacity:1;stroke-width:200.73814392"
           d="m -151.29352,194.10064 -0.44787,0.0494 q -0.0165,-0.13831 -0.0856,-0.20418 -0.0692,-0.0659 -0.17948,-0.0659 -0.14654,0 -0.24863,0.13173 -0.10044,0.13172 -0.12679,0.54831 0.17289,-0.20418 0.42976,-0.20418 0.2898,0 0.49562,0.22064 0.20747,0.22064 0.20747,0.56972 0,0.37048 -0.21735,0.59441 -0.21735,0.22394 -0.55819,0.22394 -0.36554,0 -0.601,-0.28322 -0.23546,-0.28485 -0.23546,-0.93196 0,-0.66357 0.24534,-0.95666 0.24534,-0.29309 0.63722,-0.29309 0.27498,0 0.45446,0.15478 0.18112,0.15313 0.23052,0.44622 z m -1.04887,1.00935 q 0,0.22558 0.10373,0.34908 0.10374,0.12184 0.23711,0.12184 0.12843,0 0.21406,-0.10044 0.0856,-0.10044 0.0856,-0.32931 0,-0.23546 -0.0922,-0.34414 -0.0922,-0.11032 -0.23052,-0.11032 -0.13337,0 -0.22558,0.10538 -0.0922,0.10374 -0.0922,0.30791 z" />
      </g>
      <g
         id="text968"
         style="font-style:normal;font-variant:normal;font-weight:bold;font-stretch:normal;font-size:18.54703712px;line-height:1.25;font-family:'Minya Nouvelle';-inkscape-font-specification:'Minya Nouvelle Bold';font-variant-ligatures:normal;font-variant-caps:normal;font-variant-numeric:normal;font-feature-settings:normal;text-align:center;writing-mode:lr-tb;text-anchor:middle;opacity:1;fill:#ffffff;fill-opacity:1;fill-rule:evenodd;stroke:none;stroke-width:200.73814392;stroke-linecap:square;stroke-linejoin:miter;stroke-miterlimit:4;stroke-dasharray:none;stroke-dashoffset:0;stroke-opacity:1;paint-order:markers stroke fill"
         transform="scale(1.034971,0.96621064)"
         aria-label="5">
        <path
           inkscape:connector-curvature="0"
           id="path1154"
           style="font-style:normal;font-variant:normal;font-weight:bold;font-stretch:normal;font-size:3.37218833px;font-family:Arial;-inkscape-font-specification:'Arial Bold';fill:#ffffff;fill-opacity:1;stroke-width:200.73814392"
           d="m -173.49722,195.30264 0.46104,-0.0478 q 0.0198,0.15643 0.11691,0.24863 0.0971,0.0906 0.22393,0.0906 0.1449,0 0.24534,-0.11691 0.10044,-0.11855 0.10044,-0.35566 0,-0.22229 -0.10044,-0.33261 -0.0988,-0.11197 -0.25851,-0.11197 -0.19924,0 -0.35731,0.17619 l -0.37542,-0.0543 0.23711,-1.25634 h 1.22341 v 0.43305 h -0.87269 l -0.0725,0.41 q 0.15478,-0.0774 0.31614,-0.0774 0.30791,0 0.52197,0.22393 0.21405,0.22394 0.21405,0.58125 0,0.29803 -0.17289,0.53184 -0.23546,0.31944 -0.65369,0.31944 -0.33425,0 -0.54502,-0.17948 -0.21076,-0.17948 -0.25192,-0.48245 z" />
      </g>
      <g
         id="text972"
         style="font-style:normal;font-variant:normal;font-weight:bold;font-stretch:normal;font-size:18.54703712px;line-height:1.25;font-family:'Minya Nouvelle';-inkscape-font-specification:'Minya Nouvelle Bold';font-variant-ligatures:normal;font-variant-caps:normal;font-variant-numeric:normal;font-feature-settings:normal;text-align:center;writing-mode:lr-tb;text-anchor:middle;opacity:1;fill:#ffffff;fill-opacity:1;fill-rule:evenodd;stroke:none;stroke-width:200.73814392;stroke-linecap:square;stroke-linejoin:miter;stroke-miterlimit:4;stroke-dasharray:none;stroke-dashoffset:0;stroke-opacity:1;paint-order:markers stroke fill"
         transform="scale(1.034971,0.96621064)"
         aria-label="4">
        <path
           inkscape:connector-curvature="0"
           id="path1151"
           style="font-style:normal;font-variant:normal;font-weight:bold;font-stretch:normal;font-size:3.37218833px;font-family:Arial;-inkscape-font-specification:'Arial Bold';fill:#ffffff;fill-opacity:1;stroke-width:200.73814392"
           d="m -193.23927,195.96455 v -0.48574 h -0.98795 v -0.40505 l 1.04722,-1.53297 h 0.38859 v 1.53132 h 0.29968 v 0.4067 h -0.29968 v 0.48574 z m 0,-0.89244 v -0.82494 l -0.5549,0.82494 z" />
      </g>
      <g
         id="text976"
         style="font-style:normal;font-variant:normal;font-weight:bold;font-stretch:normal;font-size:18.54703712px;line-height:1.25;font-family:'Minya Nouvelle';-inkscape-font-specification:'Minya Nouvelle Bold';font-variant-ligatures:normal;font-variant-caps:normal;font-variant-numeric:normal;font-feature-settings:normal;text-align:center;writing-mode:lr-tb;text-anchor:middle;opacity:1;fill:#ffffff;fill-opacity:1;fill-rule:evenodd;stroke:none;stroke-width:200.73814392;stroke-linecap:square;stroke-linejoin:miter;stroke-miterlimit:4;stroke-dasharray:none;stroke-dashoffset:0;stroke-opacity:1;paint-order:markers stroke fill"
         transform="scale(1.034971,0.96621064)"
         aria-label="3">
        <path
           inkscape:connector-curvature="0"
           id="path1148"
           style="font-style:normal;font-variant:normal;font-weight:bold;font-stretch:normal;font-size:3.37218833px;font-family:Arial;-inkscape-font-specification:'Arial Bold';fill:#ffffff;fill-opacity:1;stroke-width:200.73814392"
           d="m -214.80577,195.28288 0.44787,-0.0543 q 0.0214,0.17124 0.11526,0.2618 0.0939,0.0906 0.22723,0.0906 0.14325,0 0.2404,-0.10867 0.0988,-0.10868 0.0988,-0.29309 0,-0.17454 -0.0939,-0.27663 -0.0939,-0.10208 -0.22887,-0.10208 -0.0889,0 -0.21241,0.0346 l 0.051,-0.37706 q 0.18771,0.005 0.28651,-0.0807 0.0988,-0.0873 0.0988,-0.23052 0,-0.12185 -0.0725,-0.1943 -0.0724,-0.0725 -0.19265,-0.0725 -0.11855,0 -0.20253,0.0823 -0.084,0.0823 -0.10208,0.2404 l -0.42647,-0.0725 q 0.0445,-0.219 0.13338,-0.34907 0.0906,-0.13173 0.25027,-0.20583 0.16137,-0.0757 0.36061,-0.0757 0.34084,0 0.54666,0.21735 0.1696,0.17783 0.1696,0.40176 0,0.31779 -0.34743,0.50715 0.20747,0.0445 0.33096,0.19923 0.12514,0.15478 0.12514,0.37378 0,0.31779 -0.23217,0.54172 -0.23216,0.22394 -0.57795,0.22394 -0.32766,0 -0.54337,-0.18771 -0.2157,-0.18936 -0.25028,-0.49398 z" />
      </g>
      <g
         id="text980"
         style="font-style:normal;font-variant:normal;font-weight:bold;font-stretch:normal;font-size:18.54703712px;line-height:1.25;font-family:'Minya Nouvelle';-inkscape-font-specification:'Minya Nouvelle Bold';font-variant-ligatures:normal;font-variant-caps:normal;font-variant-numeric:normal;font-feature-settings:normal;text-align:center;writing-mode:lr-tb;text-anchor:middle;opacity:1;fill:#ffffff;fill-opacity:1;fill-rule:evenodd;stroke:none;stroke-width:200.73814392;stroke-linecap:square;stroke-linejoin:miter;stroke-miterlimit:4;stroke-dasharray:none;stroke-dashoffset:0;stroke-opacity:1;paint-order:markers stroke fill"
         transform="scale(1.034971,0.96621064)"
         aria-label="1">
        <path
           inkscape:connector-curvature="0"
           id="path1145"
           style="font-style:normal;font-variant:normal;font-weight:bold;font-stretch:normal;font-size:3.37218833px;font-family:Arial;-inkscape-font-specification:'Arial Bold';fill:#ffffff;fill-opacity:1;stroke-width:200.73814392"
           d="m -254.89089,195.96455 h -0.46269 v -1.74372 q -0.25357,0.23711 -0.5977,0.35072 v -0.41988 q 0.18112,-0.0593 0.39353,-0.22393 0.21241,-0.16631 0.29144,-0.38695 h 0.37542 z" />
      </g>
      <g
         id="text984"
         style="font-style:normal;font-variant:normal;font-weight:bold;font-stretch:normal;font-size:18.54703712px;line-height:1.25;font-family:'Minya Nouvelle';-inkscape-font-specification:'Minya Nouvelle Bold';font-variant-ligatures:normal;font-variant-caps:normal;font-variant-numeric:normal;font-feature-settings:normal;text-align:center;writing-mode:lr-tb;text-anchor:middle;opacity:1;fill:#ffffff;fill-opacity:1;fill-rule:evenodd;stroke:none;stroke-width:200.73814392;stroke-linecap:square;stroke-linejoin:miter;stroke-miterlimit:4;stroke-dasharray:none;stroke-dashoffset:0;stroke-opacity:1;paint-order:markers stroke fill"
         transform="scale(1.034971,0.96621064)"
         aria-label="2">
        <path
           inkscape:connector-curvature="0"
           id="path1142"
           style="font-style:normal;font-variant:normal;font-weight:bold;font-stretch:normal;font-size:3.37218833px;font-family:Arial;-inkscape-font-specification:'Arial Bold';fill:#ffffff;fill-opacity:1;stroke-width:200.73814392"
           d="m -233.86944,195.5348 v 0.42975 h -1.62188 q 0.0263,-0.24369 0.15807,-0.46104 0.13173,-0.21899 0.52032,-0.57959 0.31285,-0.29145 0.38365,-0.39518 0.0955,-0.14325 0.0955,-0.28321 0,-0.15478 -0.084,-0.23711 -0.0823,-0.084 -0.22888,-0.084 -0.1449,0 -0.23052,0.0873 -0.0856,0.0873 -0.0988,0.2898 l -0.46105,-0.0461 q 0.0412,-0.38201 0.25852,-0.54831 0.21735,-0.16631 0.54337,-0.16631 0.3573,0 0.56148,0.19265 0.20418,0.19265 0.20418,0.47916 0,0.16301 -0.0593,0.3112 -0.0576,0.14654 -0.18442,0.30791 -0.084,0.10703 -0.30297,0.30791 -0.21899,0.20088 -0.27827,0.26674 -0.0576,0.0659 -0.0939,0.12844 z" />
      </g>
      <g
         id="flowRoot1029"
         style="font-style:normal;font-variant:normal;font-weight:bold;font-stretch:normal;font-size:13.33333302px;line-height:1.25;font-family:Arial;-inkscape-font-specification:'Arial Bold';font-variant-ligatures:normal;font-variant-caps:normal;font-variant-numeric:normal;font-feature-settings:normal;text-align:center;writing-mode:lr-tb;text-anchor:middle;opacity:1;fill:#ffffff;fill-opacity:1;fill-rule:evenodd;stroke:none;stroke-width:793.70080566;stroke-linecap:square;stroke-linejoin:miter;stroke-miterlimit:4;stroke-dasharray:none;stroke-dashoffset:0;stroke-opacity:1;paint-order:markers stroke fill"
         transform="matrix(0.26175879,0,0,0.24436832,-1.7880331,17.017072)"
         aria-label="Tinggi Gelombang Laut (Meter)">
        <path
           inkscape:connector-curvature="0"
           id="path901"
           style="fill:#ffffff;fill-opacity:1"
           d="m -713.90332,655.95928 v -7.92969 h -2.83203 v -1.61458 h 7.58464 v 1.61458 h -2.82552 v 7.92969 z" />
        <path
           inkscape:connector-curvature="0"
           id="path903"
           style="fill:#ffffff;fill-opacity:1"
           d="m -708.14811,648.10772 v -1.69271 h 1.82943 v 1.69271 z m 0,7.85156 v -6.91406 h 1.82943 v 6.91406 z" />
        <path
           inkscape:connector-curvature="0"
           id="path905"
           style="fill:#ffffff;fill-opacity:1"
           d="m -698.16113,655.95928 h -1.82943 v -3.52865 q 0,-1.11979 -0.11719,-1.44531 -0.11718,-0.33203 -0.38411,-0.51432 -0.26042,-0.1823 -0.63151,-0.1823 -0.47526,0 -0.85287,0.26042 -0.3776,0.26042 -0.52083,0.69011 -0.13672,0.42968 -0.13672,1.58854 v 3.13151 h -1.82942 v -6.91406 h 1.69921 v 1.01562 q 0.90495,-1.17187 2.27865,-1.17187 0.60547,0 1.10677,0.22135 0.5013,0.21484 0.75521,0.55338 0.26042,0.33855 0.35807,0.76823 0.10417,0.42969 0.10417,1.23047 z" />
        <path
           inkscape:connector-curvature="0"
           id="path907"
           style="fill:#ffffff;fill-opacity:1"
           d="m -696.46842,656.41501 2.08984,0.2539 q 0.0521,0.36459 0.24089,0.5013 0.26041,0.19532 0.82031,0.19532 0.71615,0 1.07422,-0.21485 0.24088,-0.14323 0.36458,-0.46224 0.0846,-0.22786 0.0846,-0.83984 v -1.00911 q -0.82032,1.11979 -2.07032,1.11979 -1.39322,0 -2.20703,-1.17839 -0.63802,-0.93099 -0.63802,-2.31771 0,-1.73828 0.83334,-2.65625 0.83984,-0.91796 2.08333,-0.91796 1.28255,0 2.11588,1.1263 v -0.97005 h 1.71224 v 6.20442 q 0,1.22396 -0.20182,1.82943 -0.20182,0.60547 -0.56641,0.95052 -0.36458,0.34505 -0.97656,0.54036 -0.60547,0.19532 -1.53646,0.19532 -1.75781,0 -2.49349,-0.60547 -0.73567,-0.59896 -0.73567,-1.52344 0,-0.0911 0.007,-0.22135 z m 1.63411,-4.05599 q 0,1.10026 0.42318,1.61458 0.42969,0.50781 1.05469,0.50781 0.67057,0 1.13281,-0.52083 0.46224,-0.52734 0.46224,-1.55599 0,-1.07422 -0.44271,-1.59505 -0.44271,-0.52084 -1.11979,-0.52084 -0.65755,0 -1.08724,0.51433 -0.42318,0.50781 -0.42318,1.55599 z" />
        <path
           inkscape:connector-curvature="0"
           id="path909"
           style="fill:#ffffff;fill-opacity:1"
           d="m -688.31738,656.41501 2.08984,0.2539 q 0.0521,0.36459 0.24089,0.5013 0.26041,0.19532 0.82031,0.19532 0.71614,0 1.07422,-0.21485 0.24088,-0.14323 0.36458,-0.46224 0.0846,-0.22786 0.0846,-0.83984 v -1.00911 q -0.82032,1.11979 -2.07032,1.11979 -1.39323,0 -2.20703,-1.17839 -0.63802,-0.93099 -0.63802,-2.31771 0,-1.73828 0.83333,-2.65625 0.83985,-0.91796 2.08334,-0.91796 1.28255,0 2.11588,1.1263 v -0.97005 h 1.71224 v 6.20442 q 0,1.22396 -0.20182,1.82943 -0.20182,0.60547 -0.56641,0.95052 -0.36458,0.34505 -0.97656,0.54036 -0.60547,0.19532 -1.53646,0.19532 -1.75781,0 -2.49349,-0.60547 -0.73567,-0.59896 -0.73567,-1.52344 0,-0.0911 0.007,-0.22135 z m 1.63411,-4.05599 q 0,1.10026 0.42318,1.61458 0.42969,0.50781 1.05469,0.50781 0.67057,0 1.13281,-0.52083 0.46224,-0.52734 0.46224,-1.55599 0,-1.07422 -0.44271,-1.59505 -0.44271,-0.52084 -1.11979,-0.52084 -0.65755,0 -1.08724,0.51433 -0.42318,0.50781 -0.42318,1.55599 z" />
        <path
           inkscape:connector-curvature="0"
           id="path911"
           style="fill:#ffffff;fill-opacity:1"
           d="m -679.99707,648.10772 v -1.69271 h 1.82943 v 1.69271 z m 0,7.85156 v -6.91406 h 1.82943 v 6.91406 z" />
        <path
           inkscape:connector-curvature="0"
           id="path913"
           style="fill:#ffffff;fill-opacity:1"
           d="m -668.14811,652.45016 v -1.60807 h 4.15364 v 3.80208 q -0.60547,0.58594 -1.75781,1.03516 -1.14583,0.44271 -2.32422,0.44271 -1.49739,0 -2.61067,-0.625 -1.11329,-0.63151 -1.67318,-1.79688 -0.5599,-1.17187 -0.5599,-2.54557 0,-1.49089 0.625,-2.64974 0.625,-1.15885 1.82943,-1.77734 0.91797,-0.47526 2.28516,-0.47526 1.77734,0 2.77343,0.74869 1.00261,0.74219 1.28907,2.0573 l -1.91407,0.35807 q -0.20182,-0.70313 -0.76172,-1.10677 -0.55338,-0.41016 -1.38671,-0.41016 -1.26303,0 -2.01172,0.80078 -0.74219,0.80078 -0.74219,2.37631 0,1.69921 0.75521,2.55208 0.75521,0.84635 1.97916,0.84635 0.60547,0 1.21094,-0.23437 0.61198,-0.24089 1.04818,-0.57943 v -1.21094 z" />
        <path
           inkscape:connector-curvature="0"
           id="path915"
           style="fill:#ffffff;fill-opacity:1"
           d="m -658.23275,653.75876 1.82292,0.30599 q -0.35156,1.0026 -1.11328,1.52994 -0.75521,0.52084 -1.89453,0.52084 -1.80339,0 -2.66928,-1.17839 -0.68359,-0.94401 -0.68359,-2.38281 0,-1.71875 0.89844,-2.6888 0.89844,-0.97656 2.27213,-0.97656 1.54297,0 2.4349,1.02213 0.89193,1.01563 0.85286,3.11849 h -4.58333 q 0.0195,0.8138 0.44271,1.26953 0.42318,0.44922 1.05469,0.44922 0.42968,0 0.72265,-0.23438 0.29297,-0.23437 0.44271,-0.7552 z m 0.10417,-1.84896 q -0.0195,-0.79427 -0.41016,-1.20443 -0.39062,-0.41667 -0.95052,-0.41667 -0.59896,0 -0.98958,0.4362 -0.39063,0.4362 -0.38412,1.1849 z" />
        <path
           inkscape:connector-curvature="0"
           id="path917"
           style="fill:#ffffff;fill-opacity:1"
           d="m -654.81478,655.95928 v -9.54427 h 1.82943 v 9.54427 z" />
        <path
           inkscape:connector-curvature="0"
           id="path919"
           style="fill:#ffffff;fill-opacity:1"
           d="m -651.54004,652.40459 q 0,-0.91146 0.44922,-1.76432 0.44922,-0.85287 1.26953,-1.30209 0.82682,-0.44921 1.84245,-0.44921 1.56901,0 2.57161,1.02213 1.00261,1.01563 1.00261,2.57162 0,1.56901 -1.01563,2.60416 -1.00911,1.02865 -2.54557,1.02865 -0.95052,0 -1.81641,-0.42969 -0.85937,-0.42969 -1.30859,-1.25651 -0.44922,-0.83333 -0.44922,-2.02474 z m 1.875,0.0977 q 0,1.02864 0.48828,1.57552 0.48828,0.54687 1.20443,0.54687 0.71614,0 1.19792,-0.54687 0.48828,-0.54688 0.48828,-1.58854 0,-1.01563 -0.48828,-1.5625 -0.48178,-0.54688 -1.19792,-0.54688 -0.71615,0 -1.20443,0.54688 -0.48828,0.54687 -0.48828,1.57552 z" />
        <path
           inkscape:connector-curvature="0"
           id="path921"
           style="fill:#ffffff;fill-opacity:1"
           d="m -643.10254,649.04522 h 1.6862 v 0.94401 q 0.90494,-1.10026 2.15494,-1.10026 0.66407,0 1.15235,0.27343 0.48828,0.27344 0.80078,0.82683 0.45573,-0.55339 0.98307,-0.82683 0.52735,-0.27343 1.1263,-0.27343 0.76172,0 1.28907,0.3125 0.52734,0.30598 0.78776,0.90494 0.1888,0.44271 0.1888,1.43229 v 4.42058 h -1.82943 v -3.95183 q 0,-1.02864 -0.1888,-1.32812 -0.25391,-0.39063 -0.78125,-0.39063 -0.38411,0 -0.72266,0.23438 -0.33854,0.23437 -0.48828,0.6901 -0.14974,0.44922 -0.14974,1.42579 v 3.32031 h -1.82942 v -3.78906 q 0,-1.00912 -0.0977,-1.30209 -0.0977,-0.29297 -0.30599,-0.4362 -0.20182,-0.14323 -0.55339,-0.14323 -0.42317,0 -0.76171,0.22787 -0.33855,0.22786 -0.48829,0.65755 -0.14322,0.42969 -0.14322,1.42578 v 3.35938 h -1.82943 z" />
        <path
           inkscape:connector-curvature="0"
           id="path923"
           style="fill:#ffffff;fill-opacity:1"
           d="m -631.19499,655.95928 v -9.54427 h 1.82943 v 3.4375 q 0.84635,-0.96354 2.00521,-0.96354 1.26302,0 2.08984,0.91796 0.82682,0.91146 0.82682,2.6237 0,1.77083 -0.84635,2.72787 -0.83984,0.95703 -2.04427,0.95703 -0.59245,0 -1.17188,-0.29297 -0.57291,-0.29948 -0.98958,-0.87891 v 1.01563 z m 1.81641,-3.60677 q 0,1.07422 0.33854,1.58854 0.47526,0.72916 1.26302,0.72916 0.60547,0 1.02865,-0.51432 0.42968,-0.52083 0.42968,-1.63411 0,-1.1849 -0.42968,-1.70573 -0.42969,-0.52735 -1.10026,-0.52735 -0.65756,0 -1.09375,0.51433 -0.4362,0.50781 -0.4362,1.54948 z" />
        <path
           inkscape:connector-curvature="0"
           id="path925"
           style="fill:#ffffff;fill-opacity:1"
           d="m -621.59864,651.15459 -1.66015,-0.29948 q 0.27995,-1.0026 0.96354,-1.48437 0.68359,-0.48177 2.03125,-0.48177 1.22396,0 1.82292,0.29296 0.59895,0.28646 0.83984,0.73568 0.2474,0.44271 0.2474,1.63412 l -0.0195,2.13541 q 0,0.91146 0.0846,1.34766 0.0911,0.42969 0.33203,0.92448 h -1.80989 q -0.0716,-0.18229 -0.17579,-0.54037 -0.0456,-0.16276 -0.0651,-0.21484 -0.46875,0.45573 -1.0026,0.68359 -0.53386,0.22787 -1.13933,0.22787 -1.06771,0 -1.68619,-0.57943 -0.61198,-0.57943 -0.61198,-1.46484 0,-0.58594 0.27994,-1.04167 0.27995,-0.46224 0.78125,-0.70312 0.50782,-0.2474 1.45834,-0.42969 1.28255,-0.24089 1.77734,-0.44922 v -0.18229 q 0,-0.52735 -0.26042,-0.7487 -0.26041,-0.22787 -0.98307,-0.22787 -0.48828,0 -0.76172,0.19532 -0.27343,0.1888 -0.44271,0.67057 z m 2.44792,1.48438 q -0.35156,0.11718 -1.11328,0.27994 -0.76172,0.16276 -0.99609,0.31901 -0.35808,0.25391 -0.35808,0.64453 0,0.38412 0.28646,0.66407 0.28646,0.27994 0.72917,0.27994 0.49479,0 0.94401,-0.32552 0.33203,-0.24739 0.4362,-0.60546 0.0716,-0.23438 0.0716,-0.89193 z" />
        <path
           inkscape:connector-curvature="0"
           id="path927"
           style="fill:#ffffff;fill-opacity:1"
           d="m -609.25489,655.95928 h -1.82942 v -3.52865 q 0,-1.11979 -0.11719,-1.44531 -0.11719,-0.33203 -0.38411,-0.51432 -0.26042,-0.1823 -0.63152,-0.1823 -0.47526,0 -0.85286,0.26042 -0.3776,0.26042 -0.52083,0.69011 -0.13672,0.42968 -0.13672,1.58854 v 3.13151 h -1.82943 v -6.91406 h 1.69922 v 1.01562 q 0.90495,-1.17187 2.27865,-1.17187 0.60546,0 1.10677,0.22135 0.5013,0.21484 0.7552,0.55338 0.26042,0.33855 0.35808,0.76823 0.10416,0.42969 0.10416,1.23047 z" />
        <path
           inkscape:connector-curvature="0"
           id="path929"
           style="fill:#ffffff;fill-opacity:1"
           d="m -607.56218,656.41501 2.08984,0.2539 q 0.0521,0.36459 0.24089,0.5013 0.26042,0.19532 0.82031,0.19532 0.71615,0 1.07422,-0.21485 0.24089,-0.14323 0.36458,-0.46224 0.0846,-0.22786 0.0846,-0.83984 v -1.00911 q -0.82031,1.11979 -2.07031,1.11979 -1.39323,0 -2.20703,-1.17839 -0.63803,-0.93099 -0.63803,-2.31771 0,-1.73828 0.83334,-2.65625 0.83984,-0.91796 2.08333,-0.91796 1.28255,0 2.11589,1.1263 v -0.97005 h 1.71224 v 6.20442 q 0,1.22396 -0.20183,1.82943 -0.20182,0.60547 -0.5664,0.95052 -0.36459,0.34505 -0.97657,0.54036 -0.60546,0.19532 -1.53645,0.19532 -1.75782,0 -2.49349,-0.60547 -0.73568,-0.59896 -0.73568,-1.52344 0,-0.0911 0.007,-0.22135 z m 1.63411,-4.05599 q 0,1.10026 0.42318,1.61458 0.42969,0.50781 1.05469,0.50781 0.67057,0 1.13281,-0.52083 0.46224,-0.52734 0.46224,-1.55599 0,-1.07422 -0.44271,-1.59505 -0.44271,-0.52084 -1.11979,-0.52084 -0.65755,0 -1.08724,0.51433 -0.42318,0.50781 -0.42318,1.55599 z" />
        <path
           inkscape:connector-curvature="0"
           id="path931"
           style="fill:#ffffff;fill-opacity:1"
           d="m -595.47884,655.95928 v -9.46615 h 1.92708 v 7.85807 h 4.79167 v 1.60808 z" />
        <path
           inkscape:connector-curvature="0"
           id="path933"
           style="fill:#ffffff;fill-opacity:1"
           d="m -586.02571,651.15459 -1.66016,-0.29948 q 0.27995,-1.0026 0.96354,-1.48437 0.6836,-0.48177 2.03125,-0.48177 1.22396,0 1.82292,0.29296 0.59896,0.28646 0.83984,0.73568 0.2474,0.44271 0.2474,1.63412 l -0.0195,2.13541 q 0,0.91146 0.0846,1.34766 0.0911,0.42969 0.33203,0.92448 h -1.80989 q -0.0716,-0.18229 -0.17578,-0.54037 -0.0456,-0.16276 -0.0651,-0.21484 -0.46875,0.45573 -1.0026,0.68359 -0.53386,0.22787 -1.13933,0.22787 -1.0677,0 -1.68619,-0.57943 -0.61198,-0.57943 -0.61198,-1.46484 0,-0.58594 0.27995,-1.04167 0.27994,-0.46224 0.78125,-0.70312 0.50781,-0.2474 1.45833,-0.42969 1.28255,-0.24089 1.77734,-0.44922 v -0.18229 q 0,-0.52735 -0.26041,-0.7487 -0.26042,-0.22787 -0.98308,-0.22787 -0.48828,0 -0.76172,0.19532 -0.27343,0.1888 -0.4427,0.67057 z m 2.44791,1.48438 q -0.35156,0.11718 -1.11328,0.27994 -0.76172,0.16276 -0.99609,0.31901 -0.35808,0.25391 -0.35808,0.64453 0,0.38412 0.28646,0.66407 0.28646,0.27994 0.72917,0.27994 0.49479,0 0.94401,-0.32552 0.33203,-0.24739 0.4362,-0.60546 0.0716,-0.23438 0.0716,-0.89193 z" />
        <path
           inkscape:connector-curvature="0"
           id="path935"
           style="fill:#ffffff;fill-opacity:1"
           d="m -575.42025,655.95928 v -1.03516 q -0.3776,0.55339 -0.99609,0.8724 -0.61198,0.31901 -1.29557,0.31901 -0.69662,0 -1.25,-0.30599 -0.55339,-0.30599 -0.80078,-0.85938 -0.2474,-0.55338 -0.2474,-1.52995 v -4.37499 h 1.82943 v 3.17708 q 0,1.45833 0.0977,1.79036 0.10417,0.32552 0.3711,0.52084 0.26693,0.1888 0.67708,0.1888 0.46875,0 0.83985,-0.25391 0.37109,-0.26041 0.50781,-0.63802 0.13672,-0.38411 0.13672,-1.86849 v -2.91666 h 1.82942 v 6.91406 z" />
        <path
           inkscape:connector-curvature="0"
           id="path937"
           style="fill:#ffffff;fill-opacity:1"
           d="m -568.64942,649.04522 v 1.45833 h -1.25 v 2.78646 q 0,0.84635 0.0326,0.98958 0.0391,0.13672 0.16276,0.22786 0.13021,0.0912 0.3125,0.0912 0.25391,0 0.73568,-0.17578 l 0.15625,1.41927 q -0.63802,0.27344 -1.44531,0.27344 -0.4948,0 -0.89193,-0.16276 -0.39714,-0.16927 -0.58594,-0.42969 -0.18229,-0.26693 -0.25391,-0.71615 -0.0586,-0.31901 -0.0586,-1.28906 v -3.01432 h -0.83984 v -1.45833 h 0.83984 v -1.3737 l 1.83594,-1.06771 v 2.44141 z" />
        <path
           inkscape:connector-curvature="0"
           id="path939"
           style="fill:#ffffff;fill-opacity:1"
           d="m -560.63509,658.76527 h -1.25651 q -0.9961,-1.50391 -1.51693,-3.125 -0.52083,-1.6211 -0.52083,-3.13802 0,-1.88151 0.64453,-3.5612 0.55989,-1.45833 1.41927,-2.6888 h 1.25 q -0.89193,1.97265 -1.23047,3.35937 -0.33203,1.38021 -0.33203,2.92969 0,1.06771 0.19531,2.1875 0.20182,1.11979 0.54687,2.1289 0.22787,0.66407 0.80079,1.90756 z" />
        <path
           inkscape:connector-curvature="0"
           id="path941"
           style="fill:#ffffff;fill-opacity:1"
           d="m -559.22884,655.95928 v -9.54427 h 2.88411 l 1.73177,6.51041 1.71224,-6.51041 h 2.89063 v 9.54427 h -1.79037 v -7.51302 l -1.89453,7.51302 h -1.85547 l -1.88802,-7.51302 v 7.51302 z" />
        <path
           inkscape:connector-curvature="0"
           id="path943"
           style="fill:#ffffff;fill-opacity:1"
           d="m -544.09214,653.75876 1.82292,0.30599 q -0.35156,1.0026 -1.11328,1.52994 -0.75521,0.52084 -1.89453,0.52084 -1.80339,0 -2.66927,-1.17839 -0.6836,-0.94401 -0.6836,-2.38281 0,-1.71875 0.89844,-2.6888 0.89844,-0.97656 2.27214,-0.97656 1.54297,0 2.43489,1.02213 0.89193,1.01563 0.85287,3.11849 h -4.58334 q 0.0195,0.8138 0.44271,1.26953 0.42318,0.44922 1.05469,0.44922 0.42969,0 0.72266,-0.23438 0.29296,-0.23437 0.4427,-0.7552 z m 0.10417,-1.84896 q -0.0195,-0.79427 -0.41016,-1.20443 -0.39062,-0.41667 -0.95052,-0.41667 -0.59895,0 -0.98958,0.4362 -0.39062,0.4362 -0.38411,1.1849 z" />
        <path
           inkscape:connector-curvature="0"
           id="path945"
           style="fill:#ffffff;fill-opacity:1"
           d="m -537.50359,649.04522 v 1.45833 h -1.25 v 2.78646 q 0,0.84635 0.0326,0.98958 0.0391,0.13672 0.16276,0.22786 0.13021,0.0912 0.3125,0.0912 0.25391,0 0.73568,-0.17578 l 0.15625,1.41927 q -0.63802,0.27344 -1.44532,0.27344 -0.49479,0 -0.89192,-0.16276 -0.39714,-0.16927 -0.58594,-0.42969 -0.18229,-0.26693 -0.25391,-0.71615 -0.0586,-0.31901 -0.0586,-1.28906 v -3.01432 h -0.83984 v -1.45833 h 0.83984 v -1.3737 l 1.83594,-1.06771 v 2.44141 z" />
        <path
           inkscape:connector-curvature="0"
           id="path947"
           style="fill:#ffffff;fill-opacity:1"
           d="m -532.21714,653.75876 1.82292,0.30599 q -0.35156,1.0026 -1.11328,1.52994 -0.75521,0.52084 -1.89453,0.52084 -1.80339,0 -2.66927,-1.17839 -0.6836,-0.94401 -0.6836,-2.38281 0,-1.71875 0.89844,-2.6888 0.89844,-0.97656 2.27214,-0.97656 1.54297,0 2.43489,1.02213 0.89193,1.01563 0.85287,3.11849 h -4.58334 q 0.0195,0.8138 0.44271,1.26953 0.42318,0.44922 1.05469,0.44922 0.42969,0 0.72266,-0.23438 0.29296,-0.23437 0.4427,-0.7552 z m 0.10417,-1.84896 q -0.0195,-0.79427 -0.41016,-1.20443 -0.39062,-0.41667 -0.95052,-0.41667 -0.59895,0 -0.98958,0.4362 -0.39062,0.4362 -0.38411,1.1849 z" />
        <path
           inkscape:connector-curvature="0"
           id="path949"
           style="fill:#ffffff;fill-opacity:1"
           d="m -527.04786,655.95928 h -1.82943 v -6.91406 h 1.69922 v 0.98307 q 0.4362,-0.69662 0.78125,-0.91797 0.35156,-0.22135 0.79427,-0.22135 0.625,0 1.20442,0.34505 l -0.5664,1.59505 q -0.46224,-0.29948 -0.85938,-0.29948 -0.38411,0 -0.65104,0.21484 -0.26692,0.20834 -0.42317,0.76172 -0.14974,0.55339 -0.14974,2.31771 z" />
        <path
           inkscape:connector-curvature="0"
           id="path951"
           style="fill:#ffffff;fill-opacity:1"
           d="m -524.12468,658.76527 q 0.54036,-1.15886 0.76172,-1.77735 0.22135,-0.61849 0.41015,-1.42578 0.1888,-0.80729 0.27995,-1.52995 0.0911,-0.72916 0.0911,-1.49088 0,-1.54948 -0.33203,-2.92969 -0.33204,-1.38672 -1.22396,-3.35937 h 1.24349 q 0.98307,1.39974 1.52343,2.96875 0.54688,1.56901 0.54688,3.18359 0,1.36068 -0.42969,2.91667 -0.48828,1.74479 -1.60807,3.44401 z" />
      </g>
    </g>
  </g>
</svg>
