<?xml version="1.0" encoding="UTF-8" standalone="no"?>
<!-- Created with Inkscape (http://www.inkscape.org/) -->

<svg
   xmlns:dc="http://purl.org/dc/elements/1.1/"
   xmlns:cc="http://creativecommons.org/ns#"
   xmlns:rdf="http://www.w3.org/1999/02/22-rdf-syntax-ns#"
   xmlns:svg="http://www.w3.org/2000/svg"
   xmlns="http://www.w3.org/2000/svg"
   xmlns:sodipodi="http://sodipodi.sourceforge.net/DTD/sodipodi-0.dtd"
   xmlns:inkscape="http://www.inkscape.org/namespaces/inkscape"
   width="5.4856973mm"
   height="6.6149549mm"
   viewBox="0 0 5.4856973 6.6149549"
   version="1.1"
   id="svg8"
   inkscape:version="0.92.4 (5da689c313, 2019-01-14)"
   sodipodi:docname="anchor.svg">
  <defs
     id="defs2" />
  <sodipodi:namedview
     id="base"
     pagecolor="#ffffff"
     bordercolor="#666666"
     borderopacity="1.0"
     inkscape:pageopacity="0.0"
     inkscape:pageshadow="2"
     inkscape:zoom="5.6"
     inkscape:cx="40.751896"
     inkscape:cy="21.307543"
     inkscape:document-units="mm"
     inkscape:current-layer="layer1"
     showgrid="false"
     fit-margin-top="0"
     fit-margin-left="0"
     fit-margin-right="0"
     fit-margin-bottom="0"
     inkscape:window-width="1366"
     inkscape:window-height="705"
     inkscape:window-x="-8"
     inkscape:window-y="-8"
     inkscape:window-maximized="1" />
  <metadata
     id="metadata5">
    <rdf:RDF>
      <cc:Work
         rdf:about="">
        <dc:format>image/svg+xml</dc:format>
        <dc:type
           rdf:resource="http://purl.org/dc/dcmitype/StillImage" />
        <dc:title />
      </cc:Work>
    </rdf:RDF>
  </metadata>
  <g
     inkscape:label="Layer 1"
     inkscape:groupmode="layer"
     id="layer1"
     transform="translate(303.53298,-300.20715)">
    <path
       inkscape:connector-curvature="0"
       id="path828"
       d="m -301.77999,305.53059 c -0.59751,-0.26434 -0.73703,-0.5766 -0.98864,-0.95587 -0.12149,-0.18313 -0.23306,-0.44126 -0.28892,-0.66848 l -0.0119,-0.0485 -0.10807,0.002 c -0.12345,0.002 -0.16361,-0.0152 -0.19157,-0.0821 -0.0306,-0.073 -0.0125,-0.2841 0.0656,-0.77002 0.0186,-0.11581 0.0376,-0.24376 0.042,-0.28434 0.0166,-0.14949 0.0718,-0.15507 0.2126,-0.0215 0.14191,0.1346 0.29391,0.32695 0.52235,0.66101 0.12468,0.18232 0.13947,0.22269 0.10863,0.29651 -0.0244,0.0585 -0.0663,0.0823 -0.15817,0.0903 -0.0949,0.008 -0.0991,0.0181 -0.0503,0.12036 0.0817,0.17136 0.23824,0.37352 0.44187,0.57106 0.13973,0.13556 0.23278,0.20813 0.38501,0.3003 0.15305,0.0927 0.39416,0.17902 0.43642,0.15631 0.0148,-0.007 0.075,-0.29074 0.26828,-1.26012 0.13702,-0.68741 0.24888,-1.25849 0.24858,-1.26906 -7.6e-4,-0.0251 0.0109,-0.0218 -0.28995,-0.0809 l -0.26014,-0.0512 -0.0498,0.0487 c -0.0638,0.0624 -0.11901,0.085 -0.20775,0.085 -0.12055,0 -0.20664,-0.0503 -0.26295,-0.15359 -0.10766,-0.19753 0.0373,-0.43555 0.26431,-0.43417 0.12144,7.4e-4 0.22153,0.0686 0.27442,0.18615 0.0149,0.0333 0.0367,0.0632 0.0482,0.0666 0.0116,0.004 0.13097,0.0279 0.26531,0.0545 0.20809,0.0413 0.24665,0.046 0.26045,0.0324 0.008,-0.008 0.0332,-0.10199 0.0539,-0.20682 l 0.0377,-0.19061 -0.0291,-0.0229 c -0.17796,-0.14052 -0.27777,-0.30736 -0.30236,-0.50542 -0.0442,-0.35537 0.17192,-0.68292 0.51889,-0.78665 0.0957,-0.0286 0.29027,-0.0286 0.38602,0 0.24471,0.0732 0.43117,0.25963 0.50433,0.50434 0.0286,0.0956 0.0286,0.2904 4e-5,0.3854 -0.0683,0.22715 -0.24527,0.4154 -0.4564,0.48566 -0.0889,0.0297 -0.0793,0.009 -0.13041,0.27232 -0.0254,0.1306 -0.0303,0.17576 -0.0199,0.18601 0.012,0.012 0.50756,0.11522 0.55338,0.11525 0.0102,10e-6 0.0363,-0.0191 0.0585,-0.0423 0.0577,-0.0607 0.11919,-0.0858 0.20992,-0.0858 0.17195,0 0.29318,0.12078 0.294,0.29294 7.6e-4,0.17113 -0.12636,0.29548 -0.30139,0.2947 -0.12445,-5e-4 -0.21792,-0.0669 -0.2721,-0.19338 -0.0131,-0.0306 -0.0256,-0.0556 -0.0279,-0.0556 -0.002,0 -0.12186,-0.0238 -0.2658,-0.0527 -0.14395,-0.0289 -0.27071,-0.0527 -0.28169,-0.0527 -0.011,0 -0.0231,0.008 -0.0268,0.018 -0.0116,0.0299 -0.49863,2.47885 -0.49863,2.50674 0,0.0394 0.0457,0.0513 0.22226,0.0575 0.12583,0.005 0.18693,7.6e-4 0.30072,-0.0188 0.35712,-0.0609 0.81966,-0.27409 1.04954,-0.4837 0.0817,-0.0746 0.0812,-0.0902 -0.005,-0.12725 -0.10458,-0.045 -0.13909,-0.12182 -0.0952,-0.21204 0.0214,-0.0443 0.0502,-0.0667 0.24396,-0.19203 0.26107,-0.16872 0.47797,-0.29265 0.62621,-0.35778 0.0875,-0.0385 0.12253,-0.0477 0.18412,-0.0487 l 0.0761,-9.4e-4 -9.4e-4,0.0585 c -9.5e-4,0.0532 -0.15202,0.67185 -0.21571,0.88317 -0.0613,0.20348 -0.11738,0.25858 -0.23625,0.23221 -0.0275,-0.006 -0.0697,-0.0241 -0.0936,-0.0398 -0.0572,-0.0376 -0.0722,-0.0362 -0.10465,0.009 -0.32155,0.45217 -1.08193,0.73887 -1.78422,0.97008 -0.37398,0.12313 -0.69223,0.92349 -0.69223,0.92349 0,0 -0.22019,-1.00633 -0.45509,-1.11024 z m 1.56452,-4.10713 c 0.13437,-0.0511 0.21091,-0.15547 0.22021,-0.30038 0.005,-0.072 9.5e-4,-0.0935 -0.0236,-0.14754 -0.0615,-0.13435 -0.15438,-0.19872 -0.29774,-0.20638 -0.0708,-0.004 -0.094,10e-5 -0.14804,0.0249 -0.16478,0.0754 -0.24431,0.2559 -0.18704,0.42434 0.0255,0.075 0.12934,0.18098 0.20272,0.20686 0.0721,0.0254 0.16365,0.0248 0.23343,-0.002 z"
       style="fill:#ff6600;stroke-width:1"
       sodipodi:nodetypes="ssccccscsccscsscscscsscccsscccccccsccssccscccscscsscscccccccsscsscscccsccccc" />
  </g>
</svg>
