<?xml version="1.0" encoding="UTF-8" standalone="no"?>
<svg
   xmlns:dc="http://purl.org/dc/elements/1.1/"
   xmlns:cc="http://creativecommons.org/ns#"
   xmlns:rdf="http://www.w3.org/1999/02/22-rdf-syntax-ns#"
   xmlns:svg="http://www.w3.org/2000/svg"
   xmlns="http://www.w3.org/2000/svg"
   id="svg8"
   version="1.1"
   viewBox="0 0 371.98865 141.78473"
   height="141.78473mm"
   width="371.98865mm">
  <defs
     id="defs2" />
  <metadata
     id="metadata5">
    <rdf:RDF>
      <cc:Work
         rdf:about="">
        <dc:format>image/svg+xml</dc:format>
        <dc:type
           rdf:resource="http://purl.org/dc/dcmitype/StillImage" />
        <dc:title></dc:title>
      </cc:Work>
    </rdf:RDF>
  </metadata>
  <g
     transform="translate(238.31413,-76.104892)"
     id="layer1">
    <g
       style="stroke-width:1.04455388"
       transform="matrix(0.95734647,0,0,0.95734647,-2.2880512,6.2699514)"
       id="g4524">
      <path
         id="path4510"
         d="m -175.55865,216.61337 c -3.86116,-2.04117 -16.64439,-2.44427 -27.78663,-0.87626 -12.9076,1.81649 -18.1026,1.87478 -16.70218,0.18748 0.55738,-0.67161 3.84775,-2.27285 7.31193,-3.55831 5.42983,-2.01483 7.62344,-2.3356 15.90517,-2.3258 6.1918,0.007 10.87862,0.46558 13.18492,1.28915 4.74821,1.69555 10.57906,4.70069 11.26069,5.80358 0.71559,1.15782 -0.32193,0.98792 -3.1739,-0.51974 z m 2.74294,-30.90888 c -4.08173,-2.40234 -8.79683,-4.59604 -10.47799,-4.87483 -4.51783,-0.74921 -5.1308,-1.09094 -2.09532,-1.16825 3.64814,-0.0927 7.34174,1.28434 14.21212,5.29915 3.16734,1.85088 6.47599,3.36525 7.35254,3.36525 0.87656,0 1.35085,0.39299 1.05399,0.87332 -0.93351,1.51044 -2.42037,0.99321 -10.04534,-3.49464 z m 9.28002,-5.81384 c -2.34227,-1.70238 -5.43048,-3.58798 -6.8627,-4.19018 -2.38724,-1.00377 -2.45077,-1.13501 -0.76301,-1.57636 1.01256,-0.26472 1.84103,-0.1251 1.84103,0.31028 0,0.43534 0.45684,0.79156 1.01521,0.79156 0.7812,0 7.87347,4.04072 10.27989,5.85682 0.20815,0.15711 0.0116,0.64959 -0.43666,1.09447 -0.5015,0.49763 -2.45364,-0.38207 -5.07376,-2.28645 z m -67.79133,-8.59506 c -1.62945,-1.68116 -2.67314,-3.05666 -2.31931,-3.05666 0.35383,0 -0.35507,-1.07672 -1.57534,-2.39274 -3.6956,-3.98554 -2.52467,-4.42504 3.67632,-1.3799 7.27627,3.57317 15.57932,4.83701 24.67166,3.75527 3.6025,-0.4286 10.47999,-0.74485 15.28333,-0.70283 8.58238,0.0753 8.63521,0.0881 3.05666,0.7507 -3.12216,0.37084 -8.96233,1.30169 -12.97814,2.06853 -9.91489,1.89337 -19.43924,1.7615 -25.44851,-0.35236 -6.57988,-2.31457 -6.89271,-2.19726 -3.49333,1.30999 1.62944,1.68119 2.76613,3.05669 2.52596,3.05669 -0.24016,0 -1.76985,-1.3755 -3.3993,-3.05669 z m 18.23911,-12.69377 c -2.21699,-0.87903 -6.97842,-3.49157 -10.58098,-5.80565 -3.60254,-2.31405 -7.25538,-4.62094 -8.11741,-5.12646 -1.12258,-0.65827 -1.34175,-1.31262 -0.77236,-2.30596 0.67577,-1.17891 2.10196,-0.54489 9.51113,4.22818 9.64074,6.21066 14.37712,7.91446 25.10508,9.03085 l 7.22542,0.75192 -9.33759,-0.17296 c -5.13568,-0.0954 -8.86918,0.12477 -8.29667,0.48868 1.74626,1.11025 -0.48418,0.59774 -4.73662,-1.08844 z"
         style="fill:#abd7e1;stroke-width:1.04455388" />
      <path
         id="path4508"
         d="m -189.67757,128.85349 c -1.82994,-0.43056 -4.15253,-1.22453 -5.16131,-1.76441 -2.97265,-1.59091 0.21808,-2.83468 4.33734,-1.69072 4.56354,1.26737 9.51351,1.12893 14.57917,-0.40772 2.70027,-0.81912 4.62261,-1.00093 5.13762,-0.48591 3.60703,3.607 -9.35958,6.59167 -18.89282,4.34876 z m 3.94083,-10.26723 c -2.13721,-1.35573 0.91907,-2.62436 5.93609,-2.46404 3.78627,0.12114 4.84302,0.47109 5.07515,1.68119 0.25231,1.3153 -0.41567,1.52645 -4.79254,1.51493 -2.79713,-0.007 -5.59555,-0.33678 -6.2187,-0.73208 z m -19.39033,-8.4683 -3.92999,-1.12567 4.14833,-0.0703 c 3.13642,-0.0532 4.14833,0.24921 4.14833,1.2397 0,0.7205 -0.0983,1.25869 -0.21835,1.19595 -0.12008,-0.0627 -1.98683,-0.62062 -4.14833,-1.23971 z"
         style="fill:#66cce6;stroke-width:1.04455388" />
      <path
         id="path4502"
         d="m -202.94369,205.16492 c -4.17268,-0.58226 -11.0904,-2.79705 -14.41,-4.61351 l -3.05666,-1.6726 6.29668,-0.0366 c 3.46318,-0.0198 10.22592,0.58572 15.02831,1.34635 10.27688,1.62769 18.39088,0.78457 26.27166,-2.72991 6.72597,-2.99949 2.79291,-0.0429 -4.80334,3.61056 -7.78642,3.74514 -17.07489,5.24723 -25.32665,4.09575 z m -26.26179,-13.56432 c -3.47153,-4.10492 -7.28382,-12.71984 -8.25611,-18.65696 -1.60907,-9.82552 -1.5213,-9.8682 5.47957,-2.66539 8.42024,8.66311 10.86098,9.38968 21.45166,6.38577 4.17267,-1.18353 8.56917,-2.40314 9.77,-2.71024 1.20083,-0.30698 9.40169,-0.92333 18.22412,-1.3694 18.2789,-0.92415 20.24594,-1.5683 23.21161,-7.60085 0.98684,-2.00734 2.03726,-3.66807 2.33426,-3.69051 0.8534,-0.0644 1.55164,6.83418 1.02205,10.0977 -0.26433,1.62887 -0.53002,2.96156 -0.59042,2.96156 -0.0604,0 -1.48274,-0.39854 -3.16073,-0.88567 -3.79679,-1.10216 -24.79023,1.02463 -34.41672,3.48669 -13.99395,3.57904 -23.12875,8.22642 -28.74689,14.62512 -1.38135,1.57329 -2.8289,2.8605 -3.21678,2.8605 -0.38787,0 -1.7854,-1.27724 -3.10562,-2.83832 z m 2.23127,-58.16625 c 2.5879,-4.97429 4.30204,-7.23272 6.03413,-7.95018 13.62851,-5.64513 29.40532,-21.82757 30.46746,-31.250817 l 0.4321,-3.833665 3.88369,7.2613 c 3.19112,5.966432 3.79561,7.815532 3.38979,10.369292 -1.45645,9.16526 -10.41613,17.51836 -21.86045,20.38047 -2.6777,0.66966 -9.93124,3.92635 -19.99884,8.9791 l -5.96265,2.99252 z m 108.58153,7.79944 c -8.37694,-1.77889 -14.86537,-6.65201 -18.35576,-13.78613 -2.22326,-4.54419 -2.42504,-5.79291 -2.42775,-15.02488 -0.003,-8.40308 0.30278,-10.73667 1.84512,-14.105716 2.3226,-5.073506 7.529,-10.892198 11.59195,-12.955255 11.67649,-5.929005 27.84843,-3.262597 35.935713,5.925043 9.606123,10.913128 9.01953,33.524008 -1.116854,43.050478 -6.28475,5.90659 -18.130469,8.88027 -27.472419,6.89646 z m 15.85645,-10.72921 c 5.43224,-3.03329 8.302088,-9.44117 8.277488,-18.48222 -0.03585,-13.176873 -6.188308,-20.585058 -17.095718,-20.585058 -5.19565,0 -8.95916,1.687989 -12.33434,5.532084 -3.76514,4.288254 -4.86048,8.514314 -4.4879,17.315234 0.26753,6.31926 0.66779,7.94747 2.71334,11.0374 3.2377,4.89081 7.60568,7.0785 14.1938,7.10897 3.8311,0.0165 6.17927,-0.50023 8.73333,-1.92641 z M 1.9552338,141.20616 c -5.1945463,-1.09569 -11.2399032,-4.79564 -13.2935868,-8.13611 -1.628211,-2.64838 -3.844854,-9.24596 -3.266952,-9.72368 0.151506,-0.12543 2.475094,-0.44409 5.1632541,-0.70822 l 4.8875402,-0.4803 1.5381993,3.48643 c 2.34626487,5.31786 5.7030984,6.98935 13.3553444,6.64999 5.372822,-0.23832 6.650754,-0.60784 8.461466,-2.44714 5.268715,-5.35192 2.923969,-10.14163 -6.184749,-12.63389 -19.2982116,-5.28026 -22.919702,-7.63231 -24.864558,-16.14873 -1.551502,-6.793846 3.0383733,-14.380539 10.4049029,-17.198453 5.5054473,-2.105967 15.8249921,-2.100191 21.3467131,0.0132 4.901601,1.874979 9.99412,7.378941 10.799512,11.672076 0.304993,1.625373 0.408967,3.08026 0.231385,3.233021 -0.709207,0.609523 -11.213992,1.178842 -10.848826,0.587969 0.733732,-1.187161 -3.003913,-6.227693 -5.251617,-7.082266 -5.9388733,-2.257969 -15.6376728,0.06139 -16.6197887,3.97441 -1.1766643,4.688243 1.86527427,6.796353 14.4396527,10.006863 13.741074,3.50844 18.549263,7.29204 19.791217,15.57394 1.179899,7.86815 -4.065512,16.30588 -11.460165,18.43479 -4.906651,1.41261 -14.1473347,1.87257 -18.6288122,0.92729 z M 79.684854,140.8675 c -5.402067,-1.37131 -8.498138,-3.43427 -11.27268,-7.51104 -1.955584,-2.87343 -4.314755,-9.33132 -3.626706,-9.92757 0.197057,-0.17065 2.523286,-0.52304 5.169428,-0.78288 l 4.81116,-0.47241 1.440298,3.37258 c 2.027042,4.74649 5.972541,6.93125 12.51734,6.93125 8.471732,0 12.962716,-3.93549 11.435376,-10.02092 -0.682473,-2.71909 -3.281774,-4.00871 -13.18202,-6.54005 -13.091578,-3.34732 -17.829164,-6.75618 -19.679452,-14.16014 -0.857214,-3.430179 -0.784333,-4.807564 0.451118,-8.527187 2.467074,-7.42766 8.912519,-10.93798 20.101656,-10.947684 11.731125,-0.0099 19.374298,4.992274 21.408568,14.012035 l 0.67749,3.003815 -3.61971,0.0132 c -1.99083,0.0066 -4.41665,0.226104 -5.39074,0.487823 -1.418323,0.381078 -1.995493,-0.144904 -2.897893,-2.640299 -1.413533,-3.909055 -4.773338,-5.719437 -10.614376,-5.719437 -4.80502,0 -9.067755,1.702579 -9.937512,3.969129 -1.698419,4.426058 1.188151,7.509485 8.983453,9.596075 19.157368,5.12785 22.669508,7.42424 24.626638,16.102 0.86752,3.84638 -0.44897,9.94719 -2.88455,13.36766 -4.159,5.84071 -18.251606,9.00121 -28.516886,6.39534 z m -156.960081,-1.19003 c 0.268783,-0.84688 5.428085,-13.95663 11.694583,-29.0383 l 11.205879,-27.498526 h 5.488016 5.488016 l 9.072191,21.833316 c 4.989706,12.00832 10.112856,24.58432 11.384778,27.94667 1.271931,3.36231 2.712721,6.62306 3.201769,7.24608 0.71465,0.91046 -0.362545,1.08187 -5.48798,0.87336 l -6.377155,-0.25944 -2.218066,-6.33167 -2.218065,-6.33167 H -48.86677 -61.692275 l -2.388924,6.54998 -2.388914,6.55002 h -5.646913 c -4.996598,0 -5.59063,-0.17726 -5.158201,-1.53982 z m 36.48665,-21.63563 c 0.706219,-0.7062 -7.484553,-21.402565 -8.355535,-21.112657 -0.414991,0.137973 -2.22437,4.166217 -4.020852,8.951307 -5.343706,14.23342 -5.813088,12.63013 3.697649,12.63013 4.515473,0 8.420903,-0.21092 8.678738,-0.46878 z m 84.535626,-6.0812 V 82.703983 h 5.239998 5.239998 v 29.256657 29.25665 H 48.987047 43.747049 Z M -197.84595,80.250629 c 0.66693,-1.320909 1.41457,-2.991173 1.66142,-3.711668 0.29459,-0.859822 0.68012,-0.438015 1.12194,1.227562 0.52336,1.972979 0.31588,2.79877 -0.93258,3.711668 -2.50727,1.833356 -3.17322,1.391644 -1.85078,-1.227562 z"
         style="fill:#31a9c8;stroke-width:1.04455388" />
      <path
         id="path4500"
         d="m -226.80392,146.88974 c -1.59511,-1.12762 -2.90578,-2.38558 -2.91259,-2.7955 -0.007,-0.40993 -0.37681,-1.18442 -0.82222,-1.72113 -1.05177,-1.26731 -0.0753,-2.01632 7.70489,-5.90983 6.91564,-3.46084 7.2268,-3.5592 7.2268,-2.28437 0,0.48033 -0.49124,0.87936 -1.09166,0.88672 -0.60042,0.007 -1.67087,0.37966 -2.37878,0.82734 -1.08508,0.68617 -0.94848,1.19815 0.87016,3.26161 l 2.15727,2.44766 -2.73366,-2.4678 -2.73365,-2.46783 -4.53485,2.29801 c -3.7568,1.90369 -4.35522,2.5144 -3.4879,3.55947 0.57582,0.69382 0.71488,1.26149 0.30902,1.26149 -0.40586,0 0.20736,0.66211 1.36269,1.47133 1.29906,0.90989 3.456,1.39596 5.65265,1.27387 3.90451,-0.21719 9.22871,-1.86197 9.22871,-2.85125 0,-0.59906 1.89216,-1.15429 7.205,-2.11419 1.33333,-0.24096 2.40166,-0.038 2.40166,0.4565 0,0.4897 -1.1135,0.89042 -2.47444,0.89042 -1.36094,0 -2.74782,0.2733 -3.08194,0.60748 -0.33413,0.33413 -1.08738,0.69075 -1.67389,0.79251 -0.58652,0.10167 -2.96807,1.04124 -5.29233,2.08769 -2.6773,1.20544 -5.02442,1.70228 -6.40484,1.35583 -1.40383,-0.35233 -1.97921,-0.2238 -1.61752,0.36147 0.77984,1.26182 0.43451,1.11454 -2.87858,-1.2275 z m 25.40517,-4.58271 c 0.84972,-0.22149 2.02872,-0.20696 2.62,0.033 0.59127,0.23931 -0.10394,0.42043 -1.54496,0.40263 -1.441,-0.0165 -1.92477,-0.21356 -1.07504,-0.43497 z m 28.91044,-3.33697 c -7.27391,-1.96099 -14.7149,-4.74946 -15.01016,-5.62497 -0.15111,-0.44811 -0.90333,-0.57351 -1.6716,-0.27858 -0.98184,0.37678 -1.19205,0.20465 -0.70754,-0.57929 0.51647,-0.83566 0.19653,-0.95891 -1.2761,-0.49152 -1.40742,0.44673 -1.78333,0.32909 -1.32409,-0.41385 0.78032,-1.26259 4.86434,-0.43283 6.16313,1.25215 0.93332,1.21089 6.79613,3.07921 9.13429,2.91087 3.53575,-0.2545 6.98666,0.27429 6.98666,1.0708 0,0.50182 -1.04751,0.68644 -2.40167,0.42326 -1.98531,-0.38583 -2.09886,-0.32413 -0.65499,0.35679 0.96066,0.45296 3.12216,0.62609 4.80333,0.38477 2.31197,-0.3319 2.73751,-0.21323 1.74666,0.4865 -1.0868,0.76766 -0.97986,0.92759 0.6276,0.93868 1.45297,0.01 1.81462,-0.36886 1.44595,-1.51496 -0.41499,-1.29002 -0.34472,-1.32408 0.4507,-0.21819 0.51829,0.7205 0.94836,1.60475 0.95571,1.965 0.0201,0.99168 -4.25676,0.68379 -9.26788,-0.66719 z m -27.39873,-1.92881 c -0.7205,-0.27133 -2.2925,-0.89273 -3.49333,-1.38112 -1.20083,-0.48838 -2.67459,-0.80773 -3.275,-0.70966 -0.60042,0.098 -1.09167,-0.23172 -1.09167,-0.73327 0,-1.31827 0.85422,-1.15894 6.61998,1.23479 4.32051,1.79374 5.37561,3.14598 1.24002,1.58926 z m -14.32839,-3.60363 c -0.25198,-0.40768 0.79005,-0.77678 2.31562,-0.82015 2.01616,-0.0574 2.42537,0.1416 1.49826,0.72792 -1.60522,1.01536 -3.21924,1.05437 -3.81388,0.0921 z m 19.13172,-2.75203 c 0.29687,-0.48033 0.71305,-0.87333 0.92488,-0.87333 0.21181,0 0.38512,0.393 0.38512,0.87333 0,0.48033 -0.41619,0.87332 -0.92487,0.87332 -0.50869,0 -0.68199,-0.39299 -0.38513,-0.87332 z m -4.80333,-0.87333 c -2.06864,-0.6625 -2.03423,-0.70382 0.655,-0.78628 1.56108,-0.0479 2.83833,0.30599 2.83833,0.78628 0,0.98697 -0.41151,0.98697 -3.49333,0 z m 19.64999,-5.92969 c 3.82889,-0.26275 4.76963,-0.55444 3.49334,-1.08349 -1.53543,-0.63649 -1.45622,-0.73148 0.65499,-0.78545 1.57988,-0.0403 2.40167,0.38688 2.40167,1.24862 0,1.05137 -1.16383,1.2774 -5.895,1.14488 l -5.895,-0.16504 z m -8.75496,-1.02199 c 0.30875,-0.49958 1.58619,-0.90831 2.83873,-0.90831 2.73753,0 2.42082,0.4183 -0.92527,1.22215 -1.62326,0.38992 -2.28167,0.28188 -1.91346,-0.31391 z"
         style="fill:#447784;stroke-width:1.04455388" />
      <path
         id="path4498"
         d="M -137.03288,181.82726 V 152.5706 h 5.67666 5.67667 v 24.45335 24.45331 h 14.84666 14.846661 v 4.80334 4.80334 h -20.523321 -20.52333 z m 44.923332,27.72832 c 0.313608,-0.84058 5.562905,-14.00301 11.665091,-29.24982 l 11.094886,-27.72149 5.676663,1.7e-4 5.676665,1.6e-4 11.789996,28.45935 c 6.484489,15.65262 11.920997,28.81497 12.081105,29.24965 0.160122,0.43468 -2.394383,0.78899 -5.676665,0.78737 l -5.967772,-0.003 -2.653354,-6.76539 -2.65335,-6.76539 -12.307605,-0.24162 -12.307602,-0.24162 -2.49072,7.01002 -2.490728,7.01001 h -6.003413 c -5.352545,0 -5.9416,-0.1657 -5.433197,-1.52837 z m 32.991659,-32.53163 c -2.196353,-5.76401 -4.269211,-10.47999 -4.606337,-10.47999 -0.6145,0 -7.808679,18.5344 -7.808679,20.11756 0,0.48122 3.527356,0.54077 8.204196,0.84243 h 8.204187 z m 41.731632,21.9805 v -12.07946 l -9.675961,-15.2122 c -5.321774,-8.36671 -10.24334,-16.09642 -10.936796,-17.17719 l -1.260837,-1.965 h 6.517788 6.517782 l 6.688875,11.35527 c 3.678905,6.24542 7.006526,11.5516 7.394797,11.79156 0.388239,0.23997 3.7762978,-4.86991 7.5289947,-11.35526 L 2.2115068,152.5706 h 6.3155259 6.3154943 l -10.8744078,17.04451 -10.8743741,17.0445 v 12.21215 12.21218 h -5.2399981 -5.240004 z M 22.787057,181.82726 V 152.5706 H 44.18371 65.580397 v 4.78364 4.78363 l -15.938342,0.23798 -15.938341,0.23799 -0.256471,6.33167 -0.256471,6.33167 h 15.321589 15.32159 v 5.23999 5.24 H 48.516619 33.199288 l 0.25251,7.64165 0.25218,7.64168 16.811663,0.23733 16.811664,0.23733 v 4.78445 4.78449 H 45.057329 22.787321 Z m 55.893335,0 V 152.5706 l 14.191664,0.007 c 21.775254,0.007 26.478744,1.19808 31.003294,7.84603 1.48968,2.18879 1.96503,4.134 1.96503,8.04141 0,8.26084 -3.8139,13.31431 -11.71868,15.52752 l -4.06215,1.13732 2.43205,1.51398 c 3.66592,2.28206 6.43974,5.6452 12.77589,15.49032 l 5.7612,8.95167 h -6.8022 -6.80216 l -7.51899,-11.17207 c -4.13546,-6.14462 -8.54498,-11.7211 -9.79891,-12.39221 -1.253973,-0.67109 -4.131536,-1.2439 -6.394654,-1.27295 l -4.114727,-0.0528 v 12.44578 12.44578 l -5.458345,-8e-4 -5.458312,-7.6e-4 z m 34.216318,-8.31865 c 3.1233,-3.1233 2.89366,-6.17864 -0.70601,-9.39334 -2.09128,-1.86765 -2.86627,-1.97671 -12.412113,-1.74668 l -10.181538,0.24525 -0.255151,6.76833 -0.25515,6.76833 h 10.583909 10.583903 z m -293.48629,21.77131 c -7.75855,-1.94472 -16.46398,-2.29312 -32.83411,-1.31414 -12.21406,0.73043 -12.22506,0.72938 -10.66863,-1.02776 1.01334,-1.14399 3.15055,-1.94763 6.11333,-2.29867 2.50542,-0.29674 6.83422,-1.1354 9.61957,-1.86343 9.89026,-2.58504 25.00523,-1.31582 36.77582,3.08812 4.61433,1.72644 4.88507,1.97248 3.35204,3.04626 -2.8162,1.97252 -5.62752,2.05662 -12.35802,0.36962 z m 15.82143,-29.2647 c -2.05945,-0.64775 -8.30563,-1.60217 -13.88042,-2.12095 -5.57478,-0.51879 -13.12528,-1.42373 -16.77888,-2.01094 -6.62103,-1.06421 -6.62852,-1.06847 -2.27625,-1.29592 11.1898,-0.58484 11.05846,-2.42001 -0.21831,-3.05072 -5.49551,-0.3073 -10.197,-1.11818 -13.25825,-2.28655 -5.57466,-2.12763 -20.12413,-11.50909 -19.81173,-12.77454 0.11856,-0.48033 2.25729,-1.9812 4.7527,-3.33528 l 4.5371,-2.46196 3.64146,3.11697 c 2.0028,1.71433 3.96372,3.11696 4.35759,3.11696 0.39387,0 0.71613,0.33008 0.71613,0.73354 0,0.85183 -5.36176,2.6163 -9.16999,3.01767 l -2.62,0.27628 2.35841,0.69016 c 1.73315,0.50717 3.58548,0.12906 6.98667,-1.42564 4.04367,-1.84857 4.95917,-1.98044 7.24824,-1.04404 2.47492,1.01242 6.76072,1.94796 29.69333,6.48172 9.20616,1.82005 21.39666,6.39385 21.39666,8.02788 0,0.83222 -3.3926,7.75457 -3.72942,7.60956 -0.11031,-0.0475 -1.88558,-0.61632 -3.94503,-1.26403 z m -45.81721,-32.41468 c 0.60042,-0.24227 1.58292,-0.24227 2.18333,0 0.60042,0.24228 0.10916,0.44053 -1.09166,0.44053 -1.20083,0 -1.69208,-0.19838 -1.09167,-0.44053 z m 4.5791,-37.186424 c 4.76972,-9.064024 5.40055,-9.869845 8.07782,-10.318653 1.59724,-0.267694 3.31721,-0.742215 3.82216,-1.054271 0.94841,-0.586154 3.82592,4.536237 3.82592,6.810743 0,0.70419 -0.77591,1.280375 -1.72425,1.280375 -0.94833,0 -4.4024,2.305005 -7.67571,5.122259 -3.27331,2.817251 -7.19982,5.767831 -8.72559,6.556811 l -2.77411,1.43456 z"
         style="fill:#164552;stroke-width:1.04455388" />
    </g>
  </g>
</svg>
