<?xml version="1.0" encoding="UTF-8" standalone="no"?>
<!-- Created with Inkscape (http://www.inkscape.org/) -->

<svg
   xmlns:dc="http://purl.org/dc/elements/1.1/"
   xmlns:cc="http://creativecommons.org/ns#"
   xmlns:rdf="http://www.w3.org/1999/02/22-rdf-syntax-ns#"
   xmlns:svg="http://www.w3.org/2000/svg"
   xmlns="http://www.w3.org/2000/svg"
   xmlns:xlink="http://www.w3.org/1999/xlink"
   xmlns:sodipodi="http://sodipodi.sourceforge.net/DTD/sodipodi-0.dtd"
   xmlns:inkscape="http://www.inkscape.org/namespaces/inkscape"
   width="205.14102mm"
   height="20.44689mm"
   viewBox="0 0 205.14102 20.44689"
   version="1.1"
   id="svg8"
   inkscape:version="0.92.4 (5da689c313, 2019-01-14)"
   sodipodi:docname="Salinitas.svg">
  <defs
     id="defs2">
    <linearGradient
       inkscape:collect="always"
       id="linearGradient840">
      <stop
         style="stop-color:#00d5d8;stop-opacity:1"
         offset="0"
         id="stop854" />
      <stop
         id="stop844"
         offset="0.18206142"
         style="stop-color:#01ff00;stop-opacity:1" />
      <stop
         style="stop-color:#daeb00;stop-opacity:1"
         offset="0.38654608"
         id="stop852" />
      <stop
         style="stop-color:#ff8d00;stop-opacity:1"
         offset="0.59103072"
         id="stop846" />
      <stop
         id="stop856"
         offset="0.79551536"
         style="stop-color:#eb1500;stop-opacity:1" />
      <stop
         style="stop-color:#830000;stop-opacity:1"
         offset="1"
         id="stop838" />
    </linearGradient>
    <linearGradient
       inkscape:collect="always"
       xlink:href="#linearGradient840"
       id="linearGradient842"
       x1="-265.79639"
       y1="179.99728"
       x2="-70.826431"
       y2="180.00443"
       gradientUnits="userSpaceOnUse"
       gradientTransform="matrix(0.98932458,0,0,0.54345156,-1.7880331,83.908873)" />
  </defs>
  <sodipodi:namedview
     id="base"
     pagecolor="#ffffff"
     bordercolor="#666666"
     borderopacity="1.0"
     inkscape:pageopacity="0.0"
     inkscape:pageshadow="2"
     inkscape:zoom="2.1745406"
     inkscape:cx="437.87366"
     inkscape:cy="-21.503792"
     inkscape:document-units="mm"
     inkscape:current-layer="layer1"
     showgrid="false"
     fit-margin-top="0"
     fit-margin-left="0"
     fit-margin-right="0"
     fit-margin-bottom="0"
     inkscape:window-width="1366"
     inkscape:window-height="697"
     inkscape:window-x="-8"
     inkscape:window-y="-8"
     inkscape:window-maximized="1"
     showguides="true"
     inkscape:guide-bbox="true">
    <sodipodi:guide
       position="115.61713,15.52566"
       orientation="0,1"
       id="guide944"
       inkscape:locked="false" />
    <sodipodi:guide
       position="105.30816,4.0152157"
       orientation="0,1"
       id="guide1123"
       inkscape:locked="false" />
  </sodipodi:namedview>
  <metadata
     id="metadata5">
    <rdf:RDF>
      <cc:Work
         rdf:about="">
        <dc:format>image/svg+xml</dc:format>
        <dc:type
           rdf:resource="http://purl.org/dc/dcmitype/StillImage" />
        <dc:title />
      </cc:Work>
    </rdf:RDF>
  </metadata>
  <g
     inkscape:label="Layer 1"
     inkscape:groupmode="layer"
     id="layer1"
     transform="translate(270.06123,-172.39151)">
    <rect
       style="opacity:1;fill:#000000;fill-opacity:0.47430833;fill-rule:evenodd;stroke:none;stroke-width:224.21292114;stroke-linecap:square;stroke-linejoin:miter;stroke-miterlimit:4;stroke-dasharray:none;stroke-dashoffset:0;stroke-opacity:1;paint-order:markers stroke fill"
       id="rect994"
       width="199.77806"
       height="18.589436"
       x="-267.37976"
       y="173.45253"
       ry="4.5721879" />
    <rect
       style="opacity:1;fill:url(#linearGradient842);fill-opacity:1;fill-rule:evenodd;stroke:none;stroke-width:153.98170471;stroke-linecap:square;stroke-linejoin:miter;stroke-miterlimit:4;stroke-dasharray:none;stroke-dashoffset:0;stroke-opacity:1;paint-order:markers stroke fill"
       id="rect826"
       width="192.90379"
       height="3.9925294"
       x="-264.76215"
       y="179.73628"
       ry="1.9962647" />
    <path
       style="opacity:1;fill:#ffffff;fill-opacity:1;fill-rule:evenodd;stroke:none;stroke-width:200.73814392;stroke-linecap:square;stroke-linejoin:miter;stroke-miterlimit:4;stroke-dasharray:none;stroke-dashoffset:0;stroke-opacity:1;paint-order:markers stroke fill"
       d="m -200.37074,183.15746 c 0.14984,0 0.27046,0.14013 0.27046,0.3142 v 1.53151 c 0,0.17407 -0.12062,0.3142 -0.27046,0.3142 -0.14983,0 -0.27045,-0.14013 -0.27045,-0.3142 v -1.53151 c 0,-0.17407 0.12062,-0.3142 0.27045,-0.3142 z"
       id="rect858"
       inkscape:connector-curvature="0" />
    <path
       style="opacity:1;fill:#ffffff;fill-opacity:1;fill-rule:evenodd;stroke:none;stroke-width:200.73814392;stroke-linecap:square;stroke-linejoin:miter;stroke-miterlimit:4;stroke-dasharray:none;stroke-dashoffset:0;stroke-opacity:1;paint-order:markers stroke fill"
       d="m -264.49169,183.15746 c 0.14984,0 0.27046,0.14013 0.27046,0.3142 v 1.53151 c 0,0.17407 -0.12062,0.3142 -0.27046,0.3142 -0.14983,0 -0.27046,-0.14013 -0.27046,-0.3142 v -1.53151 c 0,-0.17407 0.12063,-0.3142 0.27046,-0.3142 z"
       id="rect860"
       inkscape:connector-curvature="0" />
    <path
       style="opacity:1;fill:#ffffff;fill-opacity:1;fill-rule:evenodd;stroke:none;stroke-width:200.73814392;stroke-linecap:square;stroke-linejoin:miter;stroke-miterlimit:4;stroke-dasharray:none;stroke-dashoffset:0;stroke-opacity:1;paint-order:markers stroke fill"
       d="m -104.1893,183.15746 c 0.14983,0 0.27046,0.14013 0.27046,0.3142 v 1.53151 c 0,0.17407 -0.12063,0.3142 -0.27046,0.3142 -0.14984,0 -0.27046,-0.14013 -0.27046,-0.3142 v -1.53151 c 0,-0.17407 0.12062,-0.3142 0.27046,-0.3142 z"
       id="rect914"
       inkscape:connector-curvature="0" />
    <path
       style="opacity:1;fill:#ffffff;fill-opacity:1;fill-rule:evenodd;stroke:none;stroke-width:200.73814392;stroke-linecap:square;stroke-linejoin:miter;stroke-miterlimit:4;stroke-dasharray:none;stroke-dashoffset:0;stroke-opacity:1;paint-order:markers stroke fill"
       d="m -136.24978,183.15746 c 0.14984,0 0.27046,0.14013 0.27046,0.3142 v 1.53151 c 0,0.17407 -0.12062,0.3142 -0.27046,0.3142 -0.14983,0 -0.27045,-0.14013 -0.27045,-0.3142 v -1.53151 c 0,-0.17407 0.12062,-0.3142 0.27045,-0.3142 z"
       id="rect916"
       inkscape:connector-curvature="0" />
    <path
       style="opacity:1;fill:#ffffff;fill-opacity:1;fill-rule:evenodd;stroke:none;stroke-width:200.73814392;stroke-linecap:square;stroke-linejoin:miter;stroke-miterlimit:4;stroke-dasharray:none;stroke-dashoffset:0;stroke-opacity:1;paint-order:markers stroke fill"
       d="m -168.31025,183.15746 c 0.14984,0 0.27046,0.14013 0.27046,0.3142 v 1.53151 c 0,0.17407 -0.12062,0.3142 -0.27046,0.3142 -0.14983,0 -0.27046,-0.14013 -0.27046,-0.3142 v -1.53151 c 0,-0.17407 0.12063,-0.3142 0.27046,-0.3142 z"
       id="rect918"
       inkscape:connector-curvature="0" />
    <path
       style="opacity:1;fill:#ffffff;fill-opacity:1;fill-rule:evenodd;stroke:none;stroke-width:200.73814392;stroke-linecap:square;stroke-linejoin:miter;stroke-miterlimit:4;stroke-dasharray:none;stroke-dashoffset:0;stroke-opacity:1;paint-order:markers stroke fill"
       d="m -72.128818,183.15746 c 0.149834,0 0.270459,0.14013 0.270459,0.3142 v 1.53151 c 0,0.17407 -0.120625,0.3142 -0.270459,0.3142 -0.149834,0 -0.270459,-0.14013 -0.270459,-0.3142 v -1.53151 c 0,-0.17407 0.120625,-0.3142 0.270459,-0.3142 z"
       id="rect920"
       inkscape:connector-curvature="0" />
    <path
       inkscape:connector-curvature="0"
       id="path961"
       d="m -232.43122,183.15746 c 0.14984,0 0.27046,0.14013 0.27046,0.3142 v 1.53151 c 0,0.17407 -0.12062,0.3142 -0.27046,0.3142 -0.14983,0 -0.27045,-0.14013 -0.27045,-0.3142 v -1.53151 c 0,-0.17407 0.12062,-0.3142 0.27045,-0.3142 z"
       style="opacity:1;fill:#ffffff;fill-opacity:1;fill-rule:evenodd;stroke:none;stroke-width:200.73814392;stroke-linecap:square;stroke-linejoin:miter;stroke-miterlimit:4;stroke-dasharray:none;stroke-dashoffset:0;stroke-opacity:1;paint-order:markers stroke fill" />
    <g
       aria-label="Salinitas (psu)"
       style="font-style:normal;font-variant:normal;font-weight:bold;font-stretch:normal;font-size:3.52777767px;line-height:1.25;font-family:Arial;-inkscape-font-specification:'Arial Bold';font-variant-ligatures:normal;font-variant-caps:normal;font-variant-numeric:normal;font-feature-settings:normal;text-align:center;writing-mode:lr-tb;text-anchor:middle;opacity:1;fill:#ffffff;fill-opacity:1;fill-rule:evenodd;stroke:none;stroke-width:210;stroke-linecap:square;stroke-linejoin:miter;stroke-miterlimit:4;stroke-dasharray:none;stroke-dashoffset:0;stroke-opacity:1;paint-order:markers stroke fill"
       id="text945">
      <path
         d="m -179.3987,176.53027 0.4961,-0.0482 q 0.0448,0.24977 0.18086,0.3669 0.13781,0.11714 0.37035,0.11714 0.24633,0 0.37035,-0.10335 0.12575,-0.10508 0.12575,-0.24461 0,-0.0896 -0.0534,-0.15158 -0.0517,-0.0637 -0.18259,-0.11024 -0.0896,-0.031 -0.40825,-0.11025 -0.40996,-0.10163 -0.57533,-0.24977 -0.23254,-0.20842 -0.23254,-0.50815 0,-0.19292 0.10852,-0.36001 0.11024,-0.16881 0.31523,-0.25666 0.2067,-0.0879 0.49781,-0.0879 0.47542,0 0.71486,0.20843 0.24116,0.20843 0.25321,0.55638 l -0.50987,0.0224 q -0.0327,-0.19464 -0.14125,-0.27905 -0.1068,-0.0861 -0.32212,-0.0861 -0.2222,0 -0.34795,0.0913 -0.081,0.0586 -0.081,0.15675 0,0.0896 0.0758,0.15331 0.0965,0.081 0.46853,0.16881 0.37207,0.0879 0.5495,0.18259 0.17914,0.093 0.27905,0.25666 0.10163,0.16192 0.10163,0.40135 0,0.21704 -0.12058,0.40652 -0.12058,0.18948 -0.34106,0.2825 -0.22049,0.0913 -0.5495,0.0913 -0.47886,0 -0.73552,-0.22048 -0.25666,-0.22221 -0.30662,-0.64596 z"
         style="stroke-width:210"
         id="path1086"
         inkscape:connector-curvature="0" />
      <path
         d="m -176.55477,176.08069 -0.43925,-0.0792 q 0.0741,-0.26527 0.25494,-0.39274 0.18086,-0.12747 0.53743,-0.12747 0.32384,0 0.48232,0.0775 0.15847,0.0758 0.2222,0.19464 0.0655,0.11714 0.0655,0.43236 l -0.005,0.565 q 0,0.24116 0.0224,0.35657 0.0241,0.11369 0.0879,0.2446 h -0.47887 q -0.0189,-0.0482 -0.0465,-0.14297 -0.0121,-0.0431 -0.0172,-0.0568 -0.12402,0.12058 -0.26527,0.18087 -0.14125,0.0603 -0.30144,0.0603 -0.2825,0 -0.44614,-0.15331 -0.16192,-0.1533 -0.16192,-0.38757 0,-0.15503 0.0741,-0.27561 0.0741,-0.1223 0.2067,-0.18603 0.13436,-0.0655 0.38585,-0.11369 0.33934,-0.0637 0.47026,-0.11886 v -0.0482 q 0,-0.13952 -0.0689,-0.19809 -0.0689,-0.0603 -0.26011,-0.0603 -0.12919,0 -0.20154,0.0517 -0.0723,0.0499 -0.11713,0.17742 z m 0.64768,0.39274 q -0.093,0.031 -0.29456,0.0741 -0.20154,0.0431 -0.26355,0.0844 -0.0947,0.0672 -0.0947,0.17054 0,0.10163 0.0758,0.1757 0.0758,0.0741 0.19293,0.0741 0.13091,0 0.24977,-0.0861 0.0879,-0.0655 0.11541,-0.1602 0.0189,-0.062 0.0189,-0.23599 z"
         style="stroke-width:210"
         id="path1088"
         inkscape:connector-curvature="0" />
      <path
         d="m -174.9528,177.35193 v -2.52526 h 0.48403 v 2.52526 z"
         style="stroke-width:210"
         id="path1090"
         inkscape:connector-curvature="0" />
      <path
         d="m -173.97439,175.27454 v -0.44787 h 0.48403 v 0.44787 z m 0,2.07739 v -1.82935 h 0.48403 v 1.82935 z"
         style="stroke-width:210"
         id="path1092"
         inkscape:connector-curvature="0" />
      <path
         d="m -171.33201,177.35193 h -0.48403 v -0.93362 q 0,-0.29628 -0.031,-0.38241 -0.031,-0.0879 -0.10163,-0.13608 -0.0689,-0.0482 -0.16708,-0.0482 -0.12575,0 -0.22566,0.0689 -0.0999,0.0689 -0.1378,0.18259 -0.0362,0.11369 -0.0362,0.4203 v 0.82855 h -0.48403 v -1.82935 h 0.44958 v 0.26872 q 0.23944,-0.31006 0.60289,-0.31006 0.1602,0 0.29284,0.0586 0.13263,0.0568 0.19981,0.14642 0.0689,0.0896 0.0947,0.20326 0.0276,0.11368 0.0276,0.32556 z"
         style="stroke-width:210"
         id="path1094"
         inkscape:connector-curvature="0" />
      <path
         d="m -170.83936,175.27454 v -0.44787 h 0.48404 v 0.44787 z m 0,2.07739 v -1.82935 h 0.48404 v 1.82935 z"
         style="stroke-width:210"
         id="path1096"
         inkscape:connector-curvature="0" />
      <path
         d="m -169.02207,175.52258 v 0.38585 h -0.33073 v 0.73725 q 0,0.22394 0.009,0.26183 0.0103,0.0362 0.0431,0.0603 0.0344,0.0241 0.0827,0.0241 0.0672,0 0.19465,-0.0465 l 0.0413,0.37551 q -0.16881,0.0724 -0.38241,0.0724 -0.13091,0 -0.23599,-0.0431 -0.10507,-0.0448 -0.15502,-0.11369 -0.0482,-0.0706 -0.0672,-0.18948 -0.0155,-0.0844 -0.0155,-0.34107 v -0.79754 h -0.22221 v -0.38585 h 0.22221 v -0.36345 l 0.48576,-0.2825 v 0.64595 z"
         style="stroke-width:210"
         id="path1098"
         inkscape:connector-curvature="0" />
      <path
         d="m -168.32099,176.08069 -0.43925,-0.0792 q 0.0741,-0.26527 0.25494,-0.39274 0.18086,-0.12747 0.53743,-0.12747 0.32384,0 0.48231,0.0775 0.15848,0.0758 0.22221,0.19464 0.0655,0.11714 0.0655,0.43236 l -0.005,0.565 q 0,0.24116 0.0224,0.35657 0.0241,0.11369 0.0879,0.2446 h -0.47886 q -0.019,-0.0482 -0.0465,-0.14297 -0.0121,-0.0431 -0.0172,-0.0568 -0.12402,0.12058 -0.26527,0.18087 -0.14125,0.0603 -0.30145,0.0603 -0.28249,0 -0.44614,-0.15331 -0.16192,-0.1533 -0.16192,-0.38757 0,-0.15503 0.0741,-0.27561 0.0741,-0.1223 0.20671,-0.18603 0.13436,-0.0655 0.38585,-0.11369 0.33934,-0.0637 0.47026,-0.11886 v -0.0482 q 0,-0.13952 -0.0689,-0.19809 -0.0689,-0.0603 -0.2601,-0.0603 -0.12919,0 -0.20154,0.0517 -0.0724,0.0499 -0.11713,0.17742 z m 0.64768,0.39274 q -0.093,0.031 -0.29456,0.0741 -0.20154,0.0431 -0.26355,0.0844 -0.0947,0.0672 -0.0947,0.17054 0,0.10163 0.0758,0.1757 0.0758,0.0741 0.19293,0.0741 0.13091,0 0.24977,-0.0861 0.0879,-0.0655 0.11541,-0.1602 0.019,-0.062 0.019,-0.23599 z"
         style="stroke-width:210"
         id="path1100"
         inkscape:connector-curvature="0" />
      <path
         d="m -166.88956,176.83 0.48576,-0.0741 q 0.031,0.14125 0.12575,0.21532 0.0947,0.0723 0.26527,0.0723 0.18776,0 0.2825,-0.0689 0.0637,-0.0482 0.0637,-0.12919 0,-0.0551 -0.0344,-0.0913 -0.0362,-0.0344 -0.16192,-0.0637 -0.58566,-0.12919 -0.74241,-0.23599 -0.21705,-0.14814 -0.21705,-0.41169 0,-0.23771 0.18776,-0.39963 0.18776,-0.16192 0.58222,-0.16192 0.37552,0 0.55811,0.1223 0.18259,0.1223 0.25149,0.36174 l -0.45647,0.0844 q -0.0293,-0.1068 -0.11197,-0.16364 -0.081,-0.0568 -0.23254,-0.0568 -0.19121,0 -0.27389,0.0534 -0.0551,0.0379 -0.0551,0.0982 0,0.0517 0.0482,0.0879 0.0655,0.0482 0.45131,0.13608 0.38757,0.0879 0.54088,0.21532 0.15158,0.12919 0.15158,0.36001 0,0.25149 -0.21015,0.43236 -0.21015,0.18087 -0.62184,0.18087 -0.37379,0 -0.59255,-0.15158 -0.21705,-0.15159 -0.28423,-0.41169 z"
         style="stroke-width:210"
         id="path1102"
         inkscape:connector-curvature="0" />
      <path
         d="m -162.9742,178.09435 h -0.33246 q -0.26355,-0.39791 -0.40135,-0.82683 -0.1378,-0.42891 -0.1378,-0.83026 0,-0.49782 0.17053,-0.94224 0.14814,-0.38585 0.37551,-0.71141 h 0.33073 q -0.23599,0.52193 -0.32556,0.88883 -0.0879,0.36518 -0.0879,0.77515 0,0.2825 0.0517,0.57878 0.0534,0.29628 0.14469,0.56327 0.0603,0.1757 0.21188,0.50471 z"
         style="stroke-width:210"
         id="path1104"
         inkscape:connector-curvature="0" />
      <path
         d="m -162.61247,175.52258 h 0.45131 v 0.26872 q 0.0879,-0.1378 0.23771,-0.22393 0.14986,-0.0861 0.33245,-0.0861 0.31867,0 0.54088,0.24977 0.22221,0.24977 0.22221,0.69591 0,0.4582 -0.22393,0.71314 -0.22393,0.25321 -0.5426,0.25321 -0.15159,0 -0.27561,-0.0603 -0.1223,-0.0603 -0.25838,-0.20671 v 0.92157 h -0.48404 z m 0.47887,0.88367 q 0,0.30834 0.1223,0.45648 0.1223,0.14641 0.298,0.14641 0.16881,0 0.28078,-0.13436 0.11196,-0.13608 0.11196,-0.44441 0,-0.28767 -0.11541,-0.4272 -0.11541,-0.13952 -0.28594,-0.13952 -0.17743,0 -0.29456,0.1378 -0.11713,0.13608 -0.11713,0.4048 z"
         style="stroke-width:210"
         id="path1106"
         inkscape:connector-curvature="0" />
      <path
         d="m -160.61259,176.83 0.48576,-0.0741 q 0.031,0.14125 0.12574,0.21532 0.0947,0.0723 0.26527,0.0723 0.18776,0 0.2825,-0.0689 0.0637,-0.0482 0.0637,-0.12919 0,-0.0551 -0.0344,-0.0913 -0.0362,-0.0344 -0.16192,-0.0637 -0.58567,-0.12919 -0.74242,-0.23599 -0.21704,-0.14814 -0.21704,-0.41169 0,-0.23771 0.18775,-0.39963 0.18776,-0.16192 0.58223,-0.16192 0.37551,0 0.5581,0.1223 0.18259,0.1223 0.25149,0.36174 l -0.45647,0.0844 q -0.0293,-0.1068 -0.11197,-0.16364 -0.081,-0.0568 -0.23254,-0.0568 -0.1912,0 -0.27389,0.0534 -0.0551,0.0379 -0.0551,0.0982 0,0.0517 0.0482,0.0879 0.0655,0.0482 0.45131,0.13608 0.38757,0.0879 0.54088,0.21532 0.15159,0.12919 0.15159,0.36001 0,0.25149 -0.21016,0.43236 -0.21015,0.18087 -0.62184,0.18087 -0.37379,0 -0.59255,-0.15158 -0.21704,-0.15159 -0.28422,-0.41169 z"
         style="stroke-width:210"
         id="path1108"
         inkscape:connector-curvature="0" />
      <path
         d="m -157.27429,177.35193 v -0.27389 q -0.0999,0.14642 -0.26355,0.23083 -0.16192,0.0844 -0.34279,0.0844 -0.18431,0 -0.33073,-0.081 -0.14642,-0.081 -0.21187,-0.22738 -0.0655,-0.14641 -0.0655,-0.40479 v -1.15756 h 0.48404 v 0.84061 q 0,0.38585 0.0258,0.4737 0.0276,0.0861 0.0982,0.1378 0.0706,0.0499 0.17914,0.0499 0.12403,0 0.22221,-0.0672 0.0982,-0.0689 0.13436,-0.16881 0.0362,-0.10163 0.0362,-0.49438 v -0.7717 h 0.48403 v 1.82935 z"
         style="stroke-width:210"
         id="path1110"
         inkscape:connector-curvature="0" />
      <path
         d="m -156.45608,178.09435 q 0.14297,-0.30662 0.20153,-0.47026 0.0586,-0.16364 0.10852,-0.37724 0.05,-0.21359 0.0741,-0.4048 0.0241,-0.19292 0.0241,-0.39446 0,-0.40997 -0.0879,-0.77515 -0.0879,-0.3669 -0.32384,-0.88883 h 0.32901 q 0.2601,0.37035 0.40307,0.78548 0.1447,0.41514 0.1447,0.84233 0,0.36001 -0.11369,0.7717 -0.12919,0.46164 -0.42547,0.91123 z"
         style="stroke-width:210"
         id="path1112"
         inkscape:connector-curvature="0" />
    </g>
    <g
       aria-label="22"
       style="font-style:normal;font-variant:normal;font-weight:bold;font-stretch:normal;font-size:3.52777767px;line-height:1.25;font-family:Arial;-inkscape-font-specification:'Arial Bold';font-variant-ligatures:normal;font-variant-caps:normal;font-variant-numeric:normal;font-feature-settings:normal;text-align:center;writing-mode:lr-tb;text-anchor:middle;opacity:1;fill:#ffffff;fill-opacity:1;fill-rule:evenodd;stroke:none;stroke-width:210;stroke-linecap:square;stroke-linejoin:miter;stroke-miterlimit:4;stroke-dasharray:none;stroke-dashoffset:0;stroke-opacity:1;paint-order:markers stroke fill"
       id="text945-1">
      <path
         d="m -264.53272,188.36383 v 0.44959 h -1.69671 q 0.0276,-0.25494 0.16536,-0.48232 0.13781,-0.2291 0.54433,-0.60633 0.32728,-0.3049 0.40135,-0.41342 0.0999,-0.14986 0.0999,-0.29627 0,-0.16192 -0.0879,-0.24805 -0.0861,-0.0879 -0.23943,-0.0879 -0.15159,0 -0.24116,0.0913 -0.0896,0.0913 -0.10335,0.30317 l -0.48232,-0.0482 q 0.0431,-0.39963 0.27044,-0.57361 0.22738,-0.17397 0.56844,-0.17397 0.3738,0 0.58739,0.20153 0.2136,0.20154 0.2136,0.50126 0,0.17054 -0.062,0.32557 -0.0603,0.1533 -0.19293,0.32211 -0.0879,0.11197 -0.31695,0.32212 -0.2291,0.21015 -0.29111,0.27905 -0.0603,0.0689 -0.0982,0.13436 z"
         style="stroke-width:210"
         id="path1081"
         inkscape:connector-curvature="0" />
      <path
         d="m -262.56902,188.36383 v 0.44959 h -1.69671 q 0.0276,-0.25494 0.16537,-0.48232 0.1378,-0.2291 0.54432,-0.60633 0.32729,-0.3049 0.40136,-0.41342 0.0999,-0.14986 0.0999,-0.29627 0,-0.16192 -0.0879,-0.24805 -0.0861,-0.0879 -0.23943,-0.0879 -0.15158,0 -0.24116,0.0913 -0.0896,0.0913 -0.10335,0.30317 l -0.48231,-0.0482 q 0.0431,-0.39963 0.27044,-0.57361 0.22737,-0.17397 0.56844,-0.17397 0.37379,0 0.58739,0.20153 0.21359,0.20154 0.21359,0.50126 0,0.17054 -0.062,0.32557 -0.0603,0.1533 -0.19292,0.32211 -0.0879,0.11197 -0.31695,0.32212 -0.2291,0.21015 -0.29111,0.27905 -0.0603,0.0689 -0.0982,0.13436 z"
         style="stroke-width:210"
         id="path1083"
         inkscape:connector-curvature="0" />
    </g>
    <g
       aria-label="40"
       style="font-style:normal;font-variant:normal;font-weight:bold;font-stretch:normal;font-size:3.52777767px;line-height:1.25;font-family:Arial;-inkscape-font-specification:'Arial Bold';font-variant-ligatures:normal;font-variant-caps:normal;font-variant-numeric:normal;font-feature-settings:normal;text-align:center;writing-mode:lr-tb;text-anchor:middle;opacity:1;fill:#ffffff;fill-opacity:1;fill-rule:evenodd;stroke:none;stroke-width:210;stroke-linecap:square;stroke-linejoin:miter;stroke-miterlimit:4;stroke-dasharray:none;stroke-dashoffset:0;stroke-opacity:1;paint-order:markers stroke fill"
       id="text945-1-5">
      <path
         d="m -73.07201,188.77036 v -0.50816 h -1.033528 v -0.42374 l 1.09554,-1.60369 h 0.406521 v 1.60196 h 0.313504 v 0.42547 h -0.313504 v 0.50816 z m 0,-0.93363 v -0.86299 l -0.580498,0.86299 z"
         style="stroke-width:210"
         id="path1076"
         inkscape:connector-curvature="0" />
      <path
         d="m -71.239219,186.23477 q 0.366903,0 0.573609,0.26182 0.246324,0.31006 0.246324,1.02836 0,0.71658 -0.248047,1.03009 -0.204983,0.25838 -0.571886,0.25838 -0.368625,0 -0.594279,-0.2825 -0.225654,-0.28422 -0.225654,-1.01113 0,-0.71314 0.248047,-1.02664 0.204983,-0.25838 0.571886,-0.25838 z m 0,0.40135 q -0.08785,0 -0.156752,0.0568 -0.0689,0.0551 -0.106798,0.19982 -0.04995,0.18776 -0.04995,0.63217 0,0.44442 0.04479,0.61151 0.04479,0.16536 0.111965,0.22048 0.0689,0.0551 0.156752,0.0551 0.08785,0 0.156752,-0.0551 0.0689,-0.0568 0.106798,-0.20153 0.04995,-0.18604 0.04995,-0.63046 0,-0.44441 -0.04479,-0.60978 -0.04479,-0.16709 -0.113689,-0.22221 -0.06718,-0.0568 -0.155028,-0.0568 z"
         style="stroke-width:210"
         id="path1078"
         inkscape:connector-curvature="0" />
    </g>
    <g
       aria-label="25"
       style="font-style:normal;font-variant:normal;font-weight:bold;font-stretch:normal;font-size:3.52777767px;line-height:1.25;font-family:Arial;-inkscape-font-specification:'Arial Bold';font-variant-ligatures:normal;font-variant-caps:normal;font-variant-numeric:normal;font-feature-settings:normal;text-align:center;writing-mode:lr-tb;text-anchor:middle;opacity:1;fill:#ffffff;fill-opacity:1;fill-rule:evenodd;stroke:none;stroke-width:210;stroke-linecap:square;stroke-linejoin:miter;stroke-miterlimit:4;stroke-dasharray:none;stroke-dashoffset:0;stroke-opacity:1;paint-order:markers stroke fill"
       id="text945-1-3">
      <path
         d="m -232.50992,188.36383 v 0.44959 h -1.69671 q 0.0276,-0.25494 0.16536,-0.48232 0.1378,-0.2291 0.54433,-0.60633 0.32728,-0.3049 0.40135,-0.41342 0.0999,-0.14986 0.0999,-0.29627 0,-0.16192 -0.0879,-0.24805 -0.0861,-0.0879 -0.23944,-0.0879 -0.15158,0 -0.24115,0.0913 -0.0896,0.0913 -0.10336,0.30317 l -0.48231,-0.0482 q 0.0431,-0.39963 0.27044,-0.57361 0.22738,-0.17397 0.56844,-0.17397 0.37379,0 0.58739,0.20153 0.2136,0.20154 0.2136,0.50126 0,0.17054 -0.062,0.32557 -0.0603,0.1533 -0.19292,0.32211 -0.0879,0.11197 -0.31695,0.32212 -0.2291,0.21015 -0.29111,0.27905 -0.0603,0.0689 -0.0982,0.13436 z"
         style="stroke-width:210"
         id="path1071"
         inkscape:connector-curvature="0" />
      <path
         d="m -232.17403,188.16402 0.48232,-0.05 q 0.0207,0.16364 0.1223,0.26011 0.10163,0.0947 0.23426,0.0947 0.15159,0 0.25666,-0.1223 0.10508,-0.12403 0.10508,-0.37208 0,-0.23254 -0.10508,-0.34795 -0.10335,-0.11713 -0.27044,-0.11713 -0.20843,0 -0.37379,0.18431 l -0.39274,-0.0568 0.24805,-1.31431 h 1.27985 v 0.45303 h -0.91295 l -0.0758,0.42892 q 0.16192,-0.081 0.33072,-0.081 0.32212,0 0.54605,0.23426 0.22393,0.23427 0.22393,0.60806 0,0.31178 -0.18086,0.55638 -0.24633,0.33418 -0.68386,0.33418 -0.34967,0 -0.57016,-0.18776 -0.22048,-0.18776 -0.26355,-0.5047 z"
         style="stroke-width:210"
         id="path1073"
         inkscape:connector-curvature="0" />
    </g>
    <g
       aria-label="34"
       style="font-style:normal;font-variant:normal;font-weight:bold;font-stretch:normal;font-size:3.52777767px;line-height:1.25;font-family:Arial;-inkscape-font-specification:'Arial Bold';font-variant-ligatures:normal;font-variant-caps:normal;font-variant-numeric:normal;font-feature-settings:normal;text-align:center;writing-mode:lr-tb;text-anchor:middle;opacity:1;fill:#ffffff;fill-opacity:1;fill-rule:evenodd;stroke:none;stroke-width:210;stroke-linecap:square;stroke-linejoin:miter;stroke-miterlimit:4;stroke-dasharray:none;stroke-dashoffset:0;stroke-opacity:1;paint-order:markers stroke fill"
       id="text945-1-32">
      <path
         d="m -138.09344,188.14334 0.46853,-0.0568 q 0.0224,0.17915 0.12058,0.27389 0.0982,0.0947 0.23771,0.0947 0.14986,0 0.25149,-0.11369 0.10335,-0.11369 0.10335,-0.30662 0,-0.18259 -0.0982,-0.28938 -0.0982,-0.1068 -0.23943,-0.1068 -0.093,0 -0.22221,0.0362 l 0.0534,-0.39446 q 0.19637,0.005 0.29972,-0.0844 0.10335,-0.0913 0.10335,-0.24115 0,-0.12747 -0.0758,-0.20326 -0.0758,-0.0758 -0.20154,-0.0758 -0.12402,0 -0.21187,0.0861 -0.0879,0.0861 -0.1068,0.25149 l -0.44614,-0.0758 q 0.0465,-0.2291 0.13953,-0.36518 0.0947,-0.1378 0.26182,-0.21532 0.16881,-0.0792 0.37724,-0.0792 0.35657,0 0.57189,0.22737 0.17742,0.18604 0.17742,0.4203 0,0.33245 -0.36346,0.53055 0.21704,0.0465 0.34623,0.20843 0.13092,0.16192 0.13092,0.39101 0,0.33246 -0.24288,0.56672 -0.24288,0.23427 -0.60462,0.23427 -0.34278,0 -0.56844,-0.19637 -0.22565,-0.19809 -0.26182,-0.51677 z"
         style="stroke-width:210"
         id="path1066"
         inkscape:connector-curvature="0" />
      <path
         d="m -135.16339,188.81342 v -0.50816 h -1.03353 v -0.42374 l 1.09554,-1.60369 h 0.40652 v 1.60196 h 0.31351 v 0.42547 h -0.31351 v 0.50816 z m 0,-0.93363 v -0.86299 l -0.5805,0.86299 z"
         style="stroke-width:210"
         id="path1068"
         inkscape:connector-curvature="0" />
    </g>
    <g
       aria-label="37"
       style="font-style:normal;font-variant:normal;font-weight:bold;font-stretch:normal;font-size:3.52777767px;line-height:1.25;font-family:Arial;-inkscape-font-specification:'Arial Bold';font-variant-ligatures:normal;font-variant-caps:normal;font-variant-numeric:normal;font-feature-settings:normal;text-align:center;writing-mode:lr-tb;text-anchor:middle;opacity:1;fill:#ffffff;fill-opacity:1;fill-rule:evenodd;stroke:none;stroke-width:210;stroke-linecap:square;stroke-linejoin:miter;stroke-miterlimit:4;stroke-dasharray:none;stroke-dashoffset:0;stroke-opacity:1;paint-order:markers stroke fill"
       id="text945-1-8">
      <path
         d="m -106.07065,188.14334 0.46854,-0.0568 q 0.0224,0.17915 0.12057,0.27389 0.0982,0.0947 0.23772,0.0947 0.14986,0 0.25149,-0.11369 0.10335,-0.11369 0.10335,-0.30662 0,-0.18259 -0.0982,-0.28938 -0.0982,-0.1068 -0.23944,-0.1068 -0.093,0 -0.22221,0.0362 l 0.0534,-0.39446 q 0.19637,0.005 0.29973,-0.0844 0.10335,-0.0913 0.10335,-0.24115 0,-0.12747 -0.0758,-0.20326 -0.0758,-0.0758 -0.20154,-0.0758 -0.12403,0 -0.21188,0.0861 -0.0879,0.0861 -0.10679,0.25149 l -0.44614,-0.0758 q 0.0465,-0.2291 0.13952,-0.36518 0.0947,-0.1378 0.26183,-0.21532 0.16881,-0.0792 0.37724,-0.0792 0.35657,0 0.57188,0.22737 0.17743,0.18604 0.17743,0.4203 0,0.33245 -0.36346,0.53055 0.21704,0.0465 0.34623,0.20843 0.13092,0.16192 0.13092,0.39101 0,0.33246 -0.24288,0.56672 -0.24288,0.23427 -0.60462,0.23427 -0.34279,0 -0.56844,-0.19637 -0.22565,-0.19809 -0.26183,-0.51677 z"
         style="stroke-width:210"
         id="path1061"
         inkscape:connector-curvature="0" />
      <path
         d="m -104.08972,186.7722 v -0.44959 h 1.65537 v 0.3514 q -0.20498,0.20154 -0.41685,0.57878 -0.21188,0.37724 -0.32384,0.8027 -0.11025,0.42375 -0.10852,0.75793 h -0.46681 q 0.0121,-0.52366 0.21531,-1.06798 0.20499,-0.54433 0.54605,-0.97324 z"
         style="stroke-width:210"
         id="path1063"
         inkscape:connector-curvature="0" />
    </g>
    <g
       aria-label="28"
       style="font-style:normal;font-variant:normal;font-weight:bold;font-stretch:normal;font-size:3.52777767px;line-height:1.25;font-family:Arial;-inkscape-font-specification:'Arial Bold';font-variant-ligatures:normal;font-variant-caps:normal;font-variant-numeric:normal;font-feature-settings:normal;text-align:center;writing-mode:lr-tb;text-anchor:middle;opacity:1;fill:#ffffff;fill-opacity:1;fill-rule:evenodd;stroke:none;stroke-width:210;stroke-linecap:square;stroke-linejoin:miter;stroke-miterlimit:4;stroke-dasharray:none;stroke-dashoffset:0;stroke-opacity:1;paint-order:markers stroke fill"
       id="text945-1-3-7">
      <path
         d="m -200.48711,188.36383 v 0.44959 h -1.69671 q 0.0276,-0.25494 0.16536,-0.48232 0.13781,-0.2291 0.54433,-0.60633 0.32728,-0.3049 0.40135,-0.41342 0.0999,-0.14986 0.0999,-0.29627 0,-0.16192 -0.0879,-0.24805 -0.0861,-0.0879 -0.23944,-0.0879 -0.15158,0 -0.24115,0.0913 -0.0896,0.0913 -0.10336,0.30317 l -0.48231,-0.0482 q 0.0431,-0.39963 0.27044,-0.57361 0.22738,-0.17397 0.56844,-0.17397 0.3738,0 0.58739,0.20153 0.2136,0.20154 0.2136,0.50126 0,0.17054 -0.062,0.32557 -0.0603,0.1533 -0.19293,0.32211 -0.0879,0.11197 -0.31695,0.32212 -0.2291,0.21015 -0.29111,0.27905 -0.0603,0.0689 -0.0982,0.13436 z"
         style="stroke-width:210"
         id="path1056"
         inkscape:connector-curvature="0" />
      <path
         d="m -199.74297,187.45088 q -0.18776,-0.0792 -0.27389,-0.21704 -0.0844,-0.13953 -0.0844,-0.30489 0,-0.2825 0.19637,-0.46681 0.19809,-0.18431 0.56155,-0.18431 0.36001,0 0.5581,0.18431 0.19982,0.18431 0.19982,0.46681 0,0.1757 -0.0913,0.3135 -0.0913,0.13608 -0.25666,0.20843 0.21016,0.0844 0.31868,0.24632 0.11024,0.16192 0.11024,0.3738 0,0.34967 -0.22393,0.56844 -0.22221,0.21876 -0.59256,0.21876 -0.34451,0 -0.57361,-0.18087 -0.27044,-0.21359 -0.27044,-0.58566 0,-0.20499 0.10163,-0.37552 0.10163,-0.17225 0.3204,-0.26527 z m 0.0999,-0.48748 q 0,0.14469 0.081,0.22565 0.0827,0.081 0.21877,0.081 0.1378,0 0.22048,-0.081 0.0827,-0.0827 0.0827,-0.22737 0,-0.13608 -0.0827,-0.21704 -0.081,-0.0827 -0.21531,-0.0827 -0.13953,0 -0.22221,0.0827 -0.0827,0.0827 -0.0827,0.21876 z m -0.0448,1.08176 q 0,0.19981 0.10163,0.31178 0.10335,0.11197 0.25666,0.11197 0.14986,0 0.24805,-0.1068 0.0982,-0.10852 0.0982,-0.31178 0,-0.17743 -0.0999,-0.28422 -0.0999,-0.10852 -0.25321,-0.10852 -0.17742,0 -0.26527,0.1223 -0.0861,0.1223 -0.0861,0.26527 z"
         style="stroke-width:210"
         id="path1058"
         inkscape:connector-curvature="0" />
    </g>
    <g
       aria-label="31"
       style="font-style:normal;font-variant:normal;font-weight:bold;font-stretch:normal;font-size:3.52777767px;line-height:1.25;font-family:Arial;-inkscape-font-specification:'Arial Bold';font-variant-ligatures:normal;font-variant-caps:normal;font-variant-numeric:normal;font-feature-settings:normal;text-align:center;writing-mode:lr-tb;text-anchor:middle;opacity:1;fill:#ffffff;fill-opacity:1;fill-rule:evenodd;stroke:none;stroke-width:210;stroke-linecap:square;stroke-linejoin:miter;stroke-miterlimit:4;stroke-dasharray:none;stroke-dashoffset:0;stroke-opacity:1;paint-order:markers stroke fill"
       id="text945-1-3-8">
      <path
         d="m -170.11624,188.14334 0.46853,-0.0568 q 0.0224,0.17915 0.12058,0.27389 0.0982,0.0947 0.23771,0.0947 0.14986,0 0.2515,-0.11369 0.10335,-0.11369 0.10335,-0.30662 0,-0.18259 -0.0982,-0.28938 -0.0982,-0.1068 -0.23943,-0.1068 -0.093,0 -0.22221,0.0362 l 0.0534,-0.39446 q 0.19637,0.005 0.29972,-0.0844 0.10336,-0.0913 0.10336,-0.24115 0,-0.12747 -0.0758,-0.20326 -0.0758,-0.0758 -0.20154,-0.0758 -0.12402,0 -0.21187,0.0861 -0.0879,0.0861 -0.1068,0.25149 l -0.44614,-0.0758 q 0.0465,-0.2291 0.13953,-0.36518 0.0947,-0.1378 0.26183,-0.21532 0.16881,-0.0792 0.37724,-0.0792 0.35656,0 0.57188,0.22737 0.17742,0.18604 0.17742,0.4203 0,0.33245 -0.36345,0.53055 0.21704,0.0465 0.34623,0.20843 0.13091,0.16192 0.13091,0.39101 0,0.33246 -0.24288,0.56672 -0.24288,0.23427 -0.60461,0.23427 -0.34279,0 -0.56844,-0.19637 -0.22566,-0.19809 -0.26183,-0.51677 z"
         style="stroke-width:210"
         id="path1051"
         inkscape:connector-curvature="0" />
      <path
         d="m -166.8968,188.81342 h -0.48403 v -1.82418 q -0.26528,0.24804 -0.62529,0.3669 v -0.43925 q 0.18948,-0.062 0.41169,-0.23427 0.22221,-0.17397 0.30489,-0.40479 h 0.39274 z"
         style="stroke-width:210"
         id="path1053"
         inkscape:connector-curvature="0" />
    </g>
  </g>
</svg>
