<?xml version="1.0" encoding="UTF-8" standalone="no"?>
<!-- Created with Inkscape (http://www.inkscape.org/) -->

<svg
   xmlns:dc="http://purl.org/dc/elements/1.1/"
   xmlns:cc="http://creativecommons.org/ns#"
   xmlns:rdf="http://www.w3.org/1999/02/22-rdf-syntax-ns#"
   xmlns:svg="http://www.w3.org/2000/svg"
   xmlns="http://www.w3.org/2000/svg"
   xmlns:sodipodi="http://sodipodi.sourceforge.net/DTD/sodipodi-0.dtd"
   xmlns:inkscape="http://www.inkscape.org/namespaces/inkscape"
   width="14.527984mm"
   height="17.210514mm"
   viewBox="0 0 14.527984 17.210514"
   version="1.1"
   id="svg8"
   inkscape:version="0.92.4 (5da689c313, 2019-01-14)"
   sodipodi:docname="DONASI.svg">
  <defs
     id="defs2" />
  <sodipodi:namedview
     id="base"
     pagecolor="#ffffff"
     bordercolor="#666666"
     borderopacity="1.0"
     inkscape:pageopacity="0.0"
     inkscape:pageshadow="2"
     inkscape:zoom="7.6559304"
     inkscape:cx="27.454449"
     inkscape:cy="32.523802"
     inkscape:document-units="mm"
     inkscape:current-layer="layer1"
     showgrid="false"
     fit-margin-top="0"
     fit-margin-left="0"
     fit-margin-right="0"
     fit-margin-bottom="0"
     inkscape:window-width="1366"
     inkscape:window-height="697"
     inkscape:window-x="-8"
     inkscape:window-y="-8"
     inkscape:window-maximized="1" />
  <metadata
     id="metadata5">
    <rdf:RDF>
      <cc:Work
         rdf:about="">
        <dc:format>image/svg+xml</dc:format>
        <dc:type
           rdf:resource="http://purl.org/dc/dcmitype/StillImage" />
        <dc:title></dc:title>
      </cc:Work>
    </rdf:RDF>
  </metadata>
  <g
     inkscape:label="Layer 1"
     inkscape:groupmode="layer"
     id="layer1"
     transform="translate(120.30169,-111.24917)">
    <g
       id="g4542"
       transform="matrix(0.11636259,0,0,0.11636259,-99.88434,105.90786)">
      <path
         inkscape:connector-curvature="0"
         id="path4533"
         d="m -115.74673,143.20155 c -0.82614,-0.66255 -5.84051,-5.58564 -11.14304,-10.94021 -8.92913,-9.01675 -9.72323,-9.90744 -10.75503,-12.06329 -1.71996,-3.59368 -2.1661,-7.1052 -1.32252,-10.40945 1.74545,-6.83682 7.15345,-11.491085 14.09504,-12.130575 3.36645,-0.31013 7.73994,1.07282 10.65613,3.369575 1.16347,0.91634 1.17537,0.91842 1.98131,0.3474 3.89994,-2.763175 6.27146,-3.642235 9.88334,-3.663465 11.827755,-0.0695 19.202575,11.984885 13.922042,22.756085 -0.690257,1.40798 -2.911275,3.81898 -11.424128,12.40127 -5.812004,5.85943 -10.944424,10.85235 -11.405374,11.09538 -1.49758,0.78962 -2.83566,0.5622 -4.48777,-0.76272 z"
         style="fill:#000000;stroke-width:0.26736841" />
      <path
         inkscape:connector-curvature="0"
         id="path4529"
         d="m -76.388202,94.180315 c -8.24739,1.79973 -16.686997,2.74133 -22.490961,2.50929 -2.920347,-0.11675 -3.751617,-0.25545 -5.692367,-0.94979 -1.24995,-0.44719 -3.50605,-1.25104 -5.01356,-1.78633 -1.59618,-0.56677 -3.49452,-1.03583 -4.54527,-1.12309 -0.99238,-0.0824 -5.47396,0.0597 -9.95906,0.31574 -15.39838,0.87913 -20.04313,-0.0345 -21.64913,-4.25864 -0.49257,-1.29556 -0.38977,-3.426266 0.22329,-4.627956 1.37969,-2.70441 3.82775,-3.777512 12.89052,-5.650516 9.91225,-2.048567 10.97045,-2.194428 17.72597,-2.443323 6.07022,-0.223647 6.41443,-0.264445 7.01842,-0.831865 0.85098,-0.799457 0.80059,-1.715989 -0.1464,-2.662985 -0.76428,-0.764279 -0.84336,-0.781538 -3.58092,-0.781538 -14.23168,0 -36.21572,5.85785 -42.67458,11.371034 -3.47086,2.962669 -6.06883,4.121159 -9.26323,4.130689 -2.31238,0.007 -3.98908,-0.53366 -5.39919,-1.74066 -1.36345,-1.167056 -2.01103,-2.731726 -2.0058,-4.846362 0.006,-2.371675 1.04054,-4.06159 4.7234,-7.714621 9.83404,-9.754374 29.216,-19.124327 44.22096,-21.378039 11.91829,-1.7901 29.182781,1.860634 38.957738,6.641103 9.774957,4.780469 29.627018,24.958517 27.806284,40.678406 -8.671849,-1.460032 -12.872067,-7.381503 -21.146114,-4.850547 z"
         style="fill:#000000;stroke-width:0.26736841" />
      <path
         style="fill:#000000;stroke-width:0.26736841"
         d="m -149.6872,145.5283 c 8.24739,-1.79974 16.687,-2.74135 22.49096,-2.50931 2.92035,0.11675 3.75162,0.25545 5.69237,0.9498 1.24995,0.44719 3.50605,1.25105 5.01356,1.78634 1.59618,0.56677 3.49452,1.03583 4.54527,1.12309 0.99238,0.0824 5.47396,-0.0597 9.95906,-0.31574 15.398374,-0.87913 20.043124,0.0345 21.649124,4.25867 0.49257,1.29556 0.38977,3.42628 -0.22329,4.62798 -1.37969,2.70442 -3.82775,3.77753 -12.890523,5.65055 -9.912241,2.04858 -10.970441,2.19444 -17.725961,2.44334 -6.07022,0.22364 -6.41443,0.26444 -7.01842,0.83186 -0.85098,0.79947 -0.80059,1.716 0.1464,2.663 0.76428,0.76429 0.84336,0.78155 3.58092,0.78155 14.23168,0 36.215714,-5.85789 42.674574,-11.3711 3.47086,-2.96269 6.06883,-4.12119 9.26323,-4.13072 2.31238,-0.007 3.98908,0.53367 5.39919,1.74068 1.36345,1.16706 2.01103,2.73174 2.0058,4.84639 -0.006,2.37168 -1.04054,4.06161 -4.7234,7.71466 -9.83404,9.75443 -29.215997,19.12444 -44.220954,21.37816 -11.91829,1.79011 -29.18278,-1.86065 -38.95774,-6.64114 -9.77496,-4.7805 -29.62702,-24.95866 -27.80628,-40.67864 8.67185,1.46004 12.87206,7.38155 21.14611,4.85058 z"
         id="path4537"
         inkscape:connector-curvature="0" />
    </g>
  </g>
</svg>
