<?xml version="1.0" encoding="UTF-8" standalone="no"?>
<!-- Created with Inkscape (http://www.inkscape.org/) -->

<svg
   xmlns:dc="http://purl.org/dc/elements/1.1/"
   xmlns:cc="http://creativecommons.org/ns#"
   xmlns:rdf="http://www.w3.org/1999/02/22-rdf-syntax-ns#"
   xmlns:svg="http://www.w3.org/2000/svg"
   xmlns="http://www.w3.org/2000/svg"
   xmlns:sodipodi="http://sodipodi.sourceforge.net/DTD/sodipodi-0.dtd"
   xmlns:inkscape="http://www.inkscape.org/namespaces/inkscape"
   width="12.596915mm"
   height="13.391587mm"
   viewBox="0 0 12.596915 13.391587"
   version="1.1"
   id="svg4608"
   inkscape:version="0.92.4 (5da689c313, 2019-01-14)"
   sodipodi:docname="LAYER.svg">
  <defs
     id="defs4602" />
  <sodipodi:namedview
     id="base"
     pagecolor="#ffffff"
     bordercolor="#666666"
     borderopacity="1.0"
     inkscape:pageopacity="0.0"
     inkscape:pageshadow="2"
     inkscape:zoom="6.1115735"
     inkscape:cx="0.54867195"
     inkscape:cy="27.753926"
     inkscape:document-units="mm"
     inkscape:current-layer="layer1"
     showgrid="false"
     fit-margin-top="0"
     fit-margin-left="0"
     fit-margin-right="0"
     fit-margin-bottom="0"
     inkscape:window-width="1366"
     inkscape:window-height="697"
     inkscape:window-x="-8"
     inkscape:window-y="-8"
     inkscape:window-maximized="1" />
  <metadata
     id="metadata4605">
    <rdf:RDF>
      <cc:Work
         rdf:about="">
        <dc:format>image/svg+xml</dc:format>
        <dc:type
           rdf:resource="http://purl.org/dc/dcmitype/StillImage" />
        <dc:title />
      </cc:Work>
    </rdf:RDF>
  </metadata>
  <g
     inkscape:label="Layer 1"
     inkscape:groupmode="layer"
     id="layer1"
     transform="translate(-57.201543,-183.71492)">
    <g
       id="g5202"
       transform="matrix(0.23059305,0,0,0.20997792,48.726317,150.42867)">
      <path
         sodipodi:nodetypes="ccczcccccccccccccccccccczccsccccccccccscc"
         inkscape:connector-curvature="0"
         id="path815"
         d="m 75.679571,177.97522 c -0.0775,0.002 -0.154041,0.0185 -0.2256,0.0484 l 0.004,-0.002 c 0,0 -14.137119,5.33585 -15.581959,6.23182 -1.44484,0.89596 -1.397,1.82036 -1.45921,2.18221 -0.0184,0.0633 -0.0273,0.12907 -0.0251,0.19512 l -1.2e-4,-0.004 2.5e-4,0.0119 c -0.004,0.0463 -0.007,0.0933 -0.008,0.1425 -10e-4,0.0892 0.004,0.17963 0.0156,0.27055 l 0.44216,22.61202 v 5.3e-4 2.7e-4 7.9e-4 c 3e-5,0.002 9e-5,0.003 1.2e-4,0.005 l -6e-5,-0.006 c 6.88e-4,0.18877 0.0871,0.36719 0.23343,0.48529 0.90232,0.89486 2.20469,0.85583 3.1856,0.66232 0.95187,-0.18779 1.69687,-0.53815 1.78513,-0.58036 l 16.238543,-6.81917 v -23.14274 l -16.74934,7.03365 -0.0137,0.007 c -8.47e-4,3.7e-4 -0.68439,0.32752 -1.50378,0.48917 -0.8189,0.16156 -2.12546,0.0863 -2.25521,-1.01822 -0.12975,-1.10449 0.69751,-1.37084 0.76505,-1.42689 l 15.393054,-6.16736 c 0.283562,-0.10856 0.450252,-0.41038 0.390961,-0.70785 -0.0593,-0.29738 -0.328811,-0.51229 -0.63228,-0.50424 z m 3.350278,4.18231 v 20.42246 l -15.491189,6.50533 -0.0148,0.007 -10e-4,8e-4 c 0,0 -0.68443,0.32767 -1.50433,0.48942 -0.72757,0.14354 -1.46565,0.11825 -1.92634,-0.21702 l -0.4018,-20.55008 c 0.82218,0.42591 1.79569,0.3675 2.57124,0.21449 0.96572,-0.19052 1.71987,-0.54871 1.78964,-0.58226 z"
         style="color:#000000;font-style:normal;font-variant:normal;font-weight:normal;font-stretch:normal;font-size:medium;line-height:normal;font-family:sans-serif;font-variant-ligatures:normal;font-variant-position:normal;font-variant-caps:normal;font-variant-numeric:normal;font-variant-alternates:normal;font-feature-settings:normal;text-indent:0;text-align:start;text-decoration:none;text-decoration-line:none;text-decoration-style:solid;text-decoration-color:#000000;letter-spacing:normal;word-spacing:normal;text-transform:none;writing-mode:lr-tb;direction:ltr;text-orientation:mixed;dominant-baseline:auto;baseline-shift:baseline;text-anchor:start;white-space:normal;shape-padding:0;clip-rule:nonzero;display:inline;overflow:visible;visibility:visible;opacity:1;isolation:auto;mix-blend-mode:normal;color-interpolation:sRGB;color-interpolation-filters:linearRGB;solid-color:#000000;solid-opacity:1;vector-effect:none;fill:#000000;fill-opacity:1;fill-rule:nonzero;stroke:none;stroke-width:5.26500034;stroke-linecap:round;stroke-linejoin:miter;stroke-miterlimit:4;stroke-dasharray:none;stroke-dashoffset:0;stroke-opacity:1;color-rendering:auto;image-rendering:auto;shape-rendering:auto;text-rendering:auto;enable-background:accumulate" />
      <path
         inkscape:connector-curvature="0"
         id="path847"
         d="m 71.07411,175.68024 c -0.0775,0.002 -0.15405,0.0185 -0.22561,0.0484 l 0.004,-0.002 c 0,0 -14.1371,5.33588 -15.58194,6.23184 -1.44484,0.89597 -1.39703,1.82034 -1.45923,2.18219 -0.0184,0.0633 -0.0273,0.12907 -0.0251,0.19512 l -1.2e-4,-0.004 2.5e-4,0.0119 c -0.004,0.0463 -0.007,0.0933 -0.008,0.1425 -10e-4,0.0892 0.004,0.17964 0.0156,0.27056 l 0.44216,22.61202 v 5.3e-4 2.7e-4 7.9e-4 c 3e-5,0.002 9e-5,0.003 1.2e-4,0.005 l -6e-5,-0.006 c 7.14e-4,0.18876 0.087,0.36718 0.23343,0.48529 0.90231,0.89486 2.20469,0.85584 3.1856,0.66232 0.95186,-0.18779 1.69686,-0.53815 1.78513,-0.58036 l 16.238541,-6.81914 v -17.9417 L 74.42369,183.609 v 16.67548 l -15.491179,6.50535 -0.0148,0.007 -10e-4,7.9e-4 c 0,0 -0.68443,0.32767 -1.50433,0.48942 -0.72757,0.14354 -1.46565,0.11825 -1.926341,-0.21702 l -0.40181,-20.55008 c 0.822191,0.42591 1.795701,0.3675 2.571251,0.21449 0.96571,-0.19052 1.71987,-0.54871 1.78964,-0.58226 l 0.10436,-0.0438 c -0.20479,-0.34895 -0.4289,-0.73298 -0.63536,-1.09224 -0.0118,0.006 -0.689,0.32791 -1.50174,0.48825 -0.8189,0.16156 -2.12545,0.0863 -2.2552,-1.01821 -0.129761,-1.10449 0.697499,-1.37085 0.76504,-1.4269 l 15.39304,-6.16734 c 0.28357,-0.10857 0.45026,-0.41038 0.39096,-0.70785 -0.0593,-0.29739 -0.3288,-0.5123 -0.63227,-0.50425 z"
         style="color:#000000;font-style:normal;font-variant:normal;font-weight:normal;font-stretch:normal;font-size:medium;line-height:normal;font-family:sans-serif;font-variant-ligatures:normal;font-variant-position:normal;font-variant-caps:normal;font-variant-numeric:normal;font-variant-alternates:normal;font-feature-settings:normal;text-indent:0;text-align:start;text-decoration:none;text-decoration-line:none;text-decoration-style:solid;text-decoration-color:#000000;letter-spacing:normal;word-spacing:normal;text-transform:none;writing-mode:lr-tb;direction:ltr;text-orientation:mixed;dominant-baseline:auto;baseline-shift:baseline;text-anchor:start;white-space:normal;shape-padding:0;clip-rule:nonzero;display:inline;overflow:visible;visibility:visible;opacity:1;isolation:auto;mix-blend-mode:normal;color-interpolation:sRGB;color-interpolation-filters:linearRGB;solid-color:#000000;solid-opacity:1;vector-effect:none;fill:#000000;fill-opacity:1;fill-rule:nonzero;stroke:none;stroke-width:5.26500034;stroke-linecap:round;stroke-linejoin:miter;stroke-miterlimit:4;stroke-dasharray:none;stroke-dashoffset:0;stroke-opacity:1;color-rendering:auto;image-rendering:auto;shape-rendering:auto;text-rendering:auto;enable-background:accumulate" />
      <path
         inkscape:connector-curvature="0"
         id="path854"
         d="m 75.679571,177.97522 c -0.0775,0.002 -0.154041,0.0185 -0.2256,0.0484 l 0.004,-0.002 c 0,0 -14.137119,5.33585 -15.581959,6.23182 -1.44484,0.89596 -1.397,1.82036 -1.45921,2.18221 -0.0184,0.0633 -0.0273,0.12907 -0.0251,0.19512 l -1.2e-4,-0.004 2.5e-4,0.0119 c -0.004,0.0463 -0.007,0.0933 -0.008,0.1425 -10e-4,0.0892 0.004,0.17963 0.0156,0.27055 l 0.44216,22.61202 v 5.3e-4 2.7e-4 7.9e-4 c 3e-5,0.002 9e-5,0.003 1.2e-4,0.005 l -6e-5,-0.006 c 6.88e-4,0.18877 0.0871,0.36719 0.23343,0.48529 0.90232,0.89486 2.20469,0.85583 3.1856,0.66232 0.95187,-0.18779 1.69687,-0.53815 1.78513,-0.58036 l 16.238543,-6.81917 v -23.14274 l -16.74934,7.03365 -0.0137,0.007 c -8.47e-4,3.7e-4 -0.68439,0.32752 -1.50378,0.48917 -0.8189,0.16156 -2.12546,0.0863 -2.25521,-1.01822 -0.12975,-1.10449 0.69751,-1.37084 0.76505,-1.42689 l 15.393054,-6.16736 c 0.283562,-0.10856 0.450252,-0.41038 0.390961,-0.70785 -0.0593,-0.29738 -0.328811,-0.51229 -0.63228,-0.50424 z"
         style="color:#000000;font-style:normal;font-variant:normal;font-weight:normal;font-stretch:normal;font-size:medium;line-height:normal;font-family:sans-serif;font-variant-ligatures:normal;font-variant-position:normal;font-variant-caps:normal;font-variant-numeric:normal;font-variant-alternates:normal;font-feature-settings:normal;text-indent:0;text-align:start;text-decoration:none;text-decoration-line:none;text-decoration-style:solid;text-decoration-color:#000000;letter-spacing:normal;word-spacing:normal;text-transform:none;writing-mode:lr-tb;direction:ltr;text-orientation:mixed;dominant-baseline:auto;baseline-shift:baseline;text-anchor:start;white-space:normal;shape-padding:0;clip-rule:nonzero;display:inline;overflow:visible;visibility:visible;opacity:1;isolation:auto;mix-blend-mode:normal;color-interpolation:sRGB;color-interpolation-filters:linearRGB;solid-color:#000000;solid-opacity:1;vector-effect:none;fill:#000000;fill-opacity:1;fill-rule:nonzero;stroke:none;stroke-width:5.26500034;stroke-linecap:round;stroke-linejoin:miter;stroke-miterlimit:4;stroke-dasharray:none;stroke-dashoffset:0;stroke-opacity:1;color-rendering:auto;image-rendering:auto;shape-rendering:auto;text-rendering:auto;enable-background:accumulate" />
      <path
         inkscape:connector-curvature="0"
         id="path849"
         d="m 79.029849,182.15753 -14.978859,6.29005 c -0.0698,0.0335 -0.82392,0.39175 -1.78964,0.58227 -0.0282,0.006 -0.0573,0.0107 -0.0861,0.016 v 20.50313 c 0.74838,-0.16944 1.34729,-0.45601 1.34729,-0.45601 l 10e-4,-8e-4 0.0148,-0.007 15.491188,-6.50535 z m -19.339739,6.65782 0.29497,15.08668 c 0.12979,0.0699 0.34358,0.14124 0.69635,0.1918 0.6217,0.0891 1.04671,0.0191 1.26776,-0.0402 l -0.0356,-14.96491 c -0.70623,0.10058 -1.52009,0.0911 -2.22353,-0.27332 z m 0.31216,15.96534 0.0176,0.90284 c 0.13219,0.0642 0.33783,0.12812 0.66154,0.17451 0.62566,0.0897 1.05213,0.0182 1.27195,-0.0414 l -0.002,-0.84045 c -0.089,0.0372 -0.27496,0.075 -0.66678,0.0723 -0.51816,-0.004 -1.01714,-0.16525 -1.28236,-0.26784 z m 0.0348,1.77732 0.0152,0.77923 c 0.13286,0.0589 0.3316,0.1164 0.62919,0.15906 0.62933,0.0902 1.05718,0.0174 1.27583,-0.0424 l -0.002,-0.71531 c -0.0872,0.0378 -0.2726,0.0769 -0.67097,0.0741 -0.4969,-0.003 -0.97519,-0.15204 -1.24761,-0.25473 z m 0.0323,1.65038 0.0226,1.15696 c 0.4489,0.3267 1.16117,0.35854 1.87046,0.22718 l -0.003,-1.21752 c -0.0855,0.0383 -0.27036,0.0787 -0.67485,0.0759 -0.47716,-0.003 -0.93821,-0.14071 -1.21533,-0.24255 z"
         style="color:#000000;font-style:normal;font-variant:normal;font-weight:normal;font-stretch:normal;font-size:medium;line-height:normal;font-family:sans-serif;font-variant-ligatures:normal;font-variant-position:normal;font-variant-caps:normal;font-variant-numeric:normal;font-variant-alternates:normal;font-feature-settings:normal;text-indent:0;text-align:start;text-decoration:none;text-decoration-line:none;text-decoration-style:solid;text-decoration-color:#000000;letter-spacing:normal;word-spacing:normal;text-transform:none;writing-mode:lr-tb;direction:ltr;text-orientation:mixed;dominant-baseline:auto;baseline-shift:baseline;text-anchor:start;white-space:normal;shape-padding:0;clip-rule:nonzero;display:inline;overflow:visible;visibility:visible;opacity:1;isolation:auto;mix-blend-mode:normal;color-interpolation:sRGB;color-interpolation-filters:linearRGB;solid-color:#000000;solid-opacity:1;vector-effect:none;fill:#666666;fill-opacity:1;fill-rule:nonzero;stroke:none;stroke-width:5.26500034;stroke-linecap:round;stroke-linejoin:miter;stroke-miterlimit:4;stroke-dasharray:none;stroke-dashoffset:0;stroke-opacity:1;color-rendering:auto;image-rendering:auto;shape-rendering:auto;text-rendering:auto;enable-background:accumulate" />
      <path
         inkscape:connector-curvature="0"
         id="path864"
         d="m 67.44685,172.63114 c -0.0775,0.002 -0.15405,0.0185 -0.22561,0.0484 l 0.004,-0.002 c 0,0 -14.1371,5.33588 -15.58194,6.23185 -1.44484,0.89596 -1.39703,1.82034 -1.45923,2.18219 -0.0184,0.0633 -0.0273,0.12907 -0.0251,0.19511 l -1.2e-4,-0.004 2.5e-4,0.0119 c -0.004,0.0463 -0.007,0.0934 -0.008,0.14251 -10e-4,0.0892 0.004,0.17963 0.0156,0.27055 l 0.44215,22.61202 v 5.3e-4 2.7e-4 7.9e-4 c 3e-5,0.002 1e-4,0.003 1.3e-4,0.005 l -6e-5,-0.006 c 7.15e-4,0.18877 0.087,0.36719 0.23343,0.48529 0.90231,0.89486 2.20469,0.85584 3.1856,0.66232 0.12217,-0.0241 0.24076,-0.0509 0.35516,-0.0794 l 0.0988,-1.33135 c -0.20942,0.0663 -0.44675,0.13116 -0.69703,0.18053 -0.72757,0.14354 -1.46565,0.11825 -1.92634,-0.21702 l -0.401798,-20.5499 c 0.82219,0.42592 1.79569,0.3675 2.57125,0.2145 0.96571,-0.19052 1.71986,-0.54872 1.78963,-0.58227 l 0.10436,-0.0438 c -0.20479,-0.34894 -0.4289,-0.73298 -0.63536,-1.09223 -0.0118,0.006 -0.689,0.3279 -1.50174,0.48825 -0.8189,0.16155 -2.12545,0.0863 -2.2552,-1.01822 -0.12975,-1.10448 0.6975,-1.37085 0.76504,-1.4269 l 15.393049,-6.16736 c 0.28356,-0.10857 0.45025,-0.41038 0.39096,-0.70785 -0.0593,-0.29739 -0.32881,-0.5123 -0.63228,-0.50425 z"
         style="color:#000000;font-style:normal;font-variant:normal;font-weight:normal;font-stretch:normal;font-size:medium;line-height:normal;font-family:sans-serif;font-variant-ligatures:normal;font-variant-position:normal;font-variant-caps:normal;font-variant-numeric:normal;font-variant-alternates:normal;font-feature-settings:normal;text-indent:0;text-align:start;text-decoration:none;text-decoration-line:none;text-decoration-style:solid;text-decoration-color:#000000;letter-spacing:normal;word-spacing:normal;text-transform:none;writing-mode:lr-tb;direction:ltr;text-orientation:mixed;dominant-baseline:auto;baseline-shift:baseline;text-anchor:start;white-space:normal;shape-padding:0;clip-rule:nonzero;display:inline;overflow:visible;visibility:visible;opacity:1;isolation:auto;mix-blend-mode:normal;color-interpolation:sRGB;color-interpolation-filters:linearRGB;solid-color:#000000;solid-opacity:1;vector-effect:none;fill:#000000;fill-opacity:1;fill-rule:nonzero;stroke:none;stroke-width:5.26500034;stroke-linecap:round;stroke-linejoin:miter;stroke-miterlimit:4;stroke-dasharray:none;stroke-dashoffset:0;stroke-opacity:1;color-rendering:auto;image-rendering:auto;shape-rendering:auto;text-rendering:auto;enable-background:accumulate" />
      <path
         sodipodi:nodetypes="cccscccccccccccccccccccsccccsccscc"
         inkscape:connector-curvature="0"
         style="color:#000000;font-style:normal;font-variant:normal;font-weight:normal;font-stretch:normal;font-size:medium;line-height:normal;font-family:sans-serif;font-variant-ligatures:normal;font-variant-position:normal;font-variant-caps:normal;font-variant-numeric:normal;font-variant-alternates:normal;font-feature-settings:normal;text-indent:0;text-align:start;text-decoration:none;text-decoration-line:none;text-decoration-style:solid;text-decoration-color:#000000;letter-spacing:normal;word-spacing:normal;text-transform:none;writing-mode:lr-tb;direction:ltr;text-orientation:mixed;dominant-baseline:auto;baseline-shift:baseline;text-anchor:start;white-space:normal;shape-padding:0;clip-rule:nonzero;display:inline;overflow:visible;visibility:visible;opacity:1;isolation:auto;mix-blend-mode:normal;color-interpolation:sRGB;color-interpolation-filters:linearRGB;solid-color:#000000;solid-opacity:1;vector-effect:none;fill:#000000;fill-opacity:1;fill-rule:nonzero;stroke:none;stroke-width:5.26499987;stroke-linecap:round;stroke-linejoin:miter;stroke-miterlimit:4;stroke-dasharray:none;stroke-dashoffset:0;stroke-opacity:1;color-rendering:auto;image-rendering:auto;shape-rendering:auto;text-rendering:auto;enable-background:accumulate"
         d="m 63.56725,169.89708 c -0.0775,0.002 -0.15405,0.0185 -0.22561,0.0484 l 0.004,-0.002 c 0,0 -13.88475,5.02084 -15.32959,5.9168 -1.44484,0.89597 -1.39702,1.82034 -1.45923,2.18219 -0.0184,0.0633 -0.0273,0.12907 -0.0251,0.19512 l -1.2e-4,-0.004 2.4e-4,0.0119 c -0.004,0.0463 -0.007,0.0933 -0.008,0.14249 -10e-4,0.0892 0.004,0.17963 0.0156,0.27056 l 0.44215,22.61201 v 5.3e-4 2.7e-4 7.9e-4 c 3e-5,0.002 1.1e-4,0.003 1.2e-4,0.005 l -6e-5,-0.006 c 7.19e-4,0.18877 0.087,0.36719 0.23343,0.4853 0.90232,0.89486 2.204689,0.85583 3.1856,0.66232 0.12217,-0.0241 0.24076,-0.0509 0.35517,-0.0794 l 0.0987,-1.33134 c -0.20942,0.0662 -0.44674,0.13115 -0.69702,0.18053 -0.72757,0.14354 -1.46565,0.11825 -1.92634,-0.21702 l -0.40181,-20.54991 c 0.82219,0.42592 1.7957,0.3675 2.57125,0.2145 0.96571,-0.19052 1.71987,-0.54872 1.78963,-0.58227 l 0.10437,-0.0438 c -0.20479,-0.34894 -0.42891,-0.73298 -0.63536,-1.09223 -0.0118,0.006 -0.689,0.3279 -1.50174,0.48824 -0.8189,0.16156 -2.12545,0.0863 -2.25521,-1.01821 -0.12975,-1.10449 0.69751,-1.37085 0.76505,-1.4269 l 15.1407,-5.85232 c 0.28356,-0.10857 0.45026,-0.41038 0.39096,-0.70785 -0.0593,-0.29739 -0.3288,-0.5123 -0.63228,-0.50425 z"
         id="path869" />
      <path
         inkscape:connector-curvature="0"
         id="path871"
         d="m 77.001051,179.04536 a 0.180256,0.18003188 0 0 0 -0.0647,0.0144 l -16.784021,6.9027 c -0.0215,0.11757 -0.0302,0.24932 -0.0205,0.3978 l 16.941611,-6.96775 a 0.180256,0.18003188 0 0 0 -0.0725,-0.34716 z m 0.535119,0.39915 a 0.180256,0.18003187 0 0 0 -0.0647,0.0144 L 60.1596,186.5787 c 0.0259,0.12728 0.0686,0.23943 0.12537,0.33781 l 17.323641,-7.12484 a 0.180256,0.18003187 0 0 0 -0.0725,-0.34716 z m 0.46736,0.40845 a 0.180256,0.18003187 0 0 0 -0.0647,0.0144 l -17.44568,7.1748 a 0.18030728,0.18008309 0 0 0 -0.0739,0.0566 c 0.0885,0.0959 0.19384,0.17335 0.31044,0.2356 L 78.076,180.20011 a 0.180256,0.18003187 0 0 0 -0.0725,-0.34715 z m 0.409009,0.52516 a 0.180256,0.18003187 0 0 0 -0.0647,0.0144 l -17.231471,7.08669 c 0.25276,0.0623 0.52667,0.0787 0.78703,0.0657 l 16.581579,-6.81963 a 0.180256,0.18003187 0 0 0 -0.0725,-0.34716 z"
         style="color:#000000;font-style:normal;font-variant:normal;font-weight:normal;font-stretch:normal;font-size:medium;line-height:normal;font-family:sans-serif;font-variant-ligatures:normal;font-variant-position:normal;font-variant-caps:normal;font-variant-numeric:normal;font-variant-alternates:normal;font-feature-settings:normal;text-indent:0;text-align:start;text-decoration:none;text-decoration-line:none;text-decoration-style:solid;text-decoration-color:#000000;letter-spacing:normal;word-spacing:normal;text-transform:none;writing-mode:lr-tb;direction:ltr;text-orientation:mixed;dominant-baseline:auto;baseline-shift:baseline;text-anchor:start;white-space:normal;shape-padding:0;clip-rule:nonzero;display:inline;overflow:visible;visibility:visible;opacity:1;isolation:auto;mix-blend-mode:normal;color-interpolation:sRGB;color-interpolation-filters:linearRGB;solid-color:#000000;solid-opacity:1;vector-effect:none;fill:#000000;fill-opacity:1;fill-rule:nonzero;stroke:none;stroke-width:3.26500058;stroke-linecap:round;stroke-linejoin:miter;stroke-miterlimit:4;stroke-dasharray:none;stroke-dashoffset:0;stroke-opacity:1;color-rendering:auto;image-rendering:auto;shape-rendering:auto;text-rendering:auto;enable-background:accumulate" />
      <path
         inkscape:connector-curvature="0"
         style="color:#000000;font-style:normal;font-variant:normal;font-weight:normal;font-stretch:normal;font-size:medium;line-height:normal;font-family:sans-serif;font-variant-ligatures:normal;font-variant-position:normal;font-variant-caps:normal;font-variant-numeric:normal;font-variant-alternates:normal;font-feature-settings:normal;text-indent:0;text-align:start;text-decoration:none;text-decoration-line:none;text-decoration-style:solid;text-decoration-color:#000000;letter-spacing:normal;word-spacing:normal;text-transform:none;writing-mode:lr-tb;direction:ltr;text-orientation:mixed;dominant-baseline:auto;baseline-shift:baseline;text-anchor:start;white-space:normal;shape-padding:0;clip-rule:nonzero;display:inline;overflow:visible;visibility:visible;opacity:1;isolation:auto;mix-blend-mode:normal;color-interpolation:sRGB;color-interpolation-filters:linearRGB;solid-color:#000000;solid-opacity:1;vector-effect:none;fill:#000000;fill-opacity:1;fill-rule:nonzero;stroke:none;stroke-width:3.26500034;stroke-linecap:round;stroke-linejoin:miter;stroke-miterlimit:4;stroke-dasharray:none;stroke-dashoffset:0;stroke-opacity:1;color-rendering:auto;image-rendering:auto;shape-rendering:auto;text-rendering:auto;enable-background:accumulate"
         d="m 72.33916,176.81684 a 0.18025598,0.18003185 0 0 0 -0.0647,0.0144 l -16.78404,6.90269 c -0.0215,0.11756 -0.0301,0.24931 -0.0204,0.3978 L 72.41165,177.164 a 0.18025598,0.18003185 0 0 0 -0.0725,-0.34716 z m 0.53512,0.39915 a 0.18025598,0.18003185 0 0 0 -0.0647,0.0144 l -17.31189,7.11977 c 0.0259,0.12728 0.0687,0.23943 0.12537,0.3378 l 17.32366,-7.12481 a 0.18025598,0.18003185 0 0 0 -0.0725,-0.34716 z m 0.46735,0.40844 a 0.18025598,0.18003185 0 0 0 -0.0647,0.0144 l -17.44569,7.17478 a 0.18030726,0.18008306 0 0 0 -0.0739,0.0566 c 0.0885,0.0959 0.19384,0.17335 0.31044,0.2356 l 17.34632,-7.13423 a 0.18025598,0.18003185 0 0 0 -0.0725,-0.34716 z m 0.409009,0.52517 a 0.18025598,0.18003185 0 0 0 -0.0647,0.0144 l -17.231489,7.08667 c 0.25277,0.0622 0.52667,0.0787 0.78704,0.0657 l 16.581579,-6.81963 a 0.18025598,0.18003185 0 0 0 -0.0725,-0.34715 z"
         id="path891" />
      <path
         sodipodi:nodetypes="cccccc"
         inkscape:connector-curvature="0"
         id="rect893"
         d="m 67.7539,185.27579 -4.23187,1.9088 v 6.34217 l 2.17899,-3.97809 2.05288,1.44991 z"
         style="font-style:normal;font-weight:normal;font-size:16.63940239px;line-height:53.1412735px;font-family:sans-serif;letter-spacing:20.79925346px;word-spacing:0px;opacity:1;fill:#000000;fill-opacity:1;fill-rule:evenodd;stroke:none;stroke-width:3.26499987;stroke-linecap:round;stroke-linejoin:miter;stroke-miterlimit:4;stroke-dasharray:none;stroke-opacity:1;paint-order:stroke markers fill" />
      <path
         sodipodi:nodetypes="cccccccccccccccccccccccccccccccc"
         inkscape:connector-curvature="0"
         id="path910"
         d="m 56.28845,189.15445 v 12.57524 c -0.19139,0.006 -0.41662,-0.003 -0.677561,-0.0401 -0.797769,-0.11434 -0.886449,-0.33521 -0.894349,-0.40395 l 0.0184,1.00793 c 0,0 0.71947,0.34557 1.47919,0.35074 0.0264,2.6e-4 0.0498,-2.7e-4 0.0744,-5.3e-4 v 0.85005 c -0.19139,0.006 -0.41662,-0.003 -0.67756,-0.0401 -0.79777,-0.11435 -0.88645,-0.33521 -0.89435,-0.40395 l 0.0184,1.00793 c 0,0 0.71947,0.34556 1.47919,0.35073 0.0264,2.6e-4 0.0498,-2.7e-4 0.0744,-5.3e-4 v 0.72409 c -0.19139,0.006 -0.41662,-0.003 -0.67756,-0.0401 -0.79777,-0.11435 -0.88645,-0.33527 -0.89435,-0.40401 l 0.0184,1.00793 c 0,0 0.71947,0.34556 1.47919,0.35073 0.0264,2.7e-4 0.0498,-2.6e-4 0.0744,-5.3e-4 v 1.55119 h 0.33878 c 0,0 0,-9.16171 0,-18.443 z m -1.57191,15.53358 -3.71e-4,-0.0215 c 0,0 -10e-4,0.008 3.71e-4,0.0215 z m 0,-1.6382 -3.71e-4,-0.0215 c 0,0 -10e-4,0.008 3.71e-4,0.0215 z m 0,-1.76421 -3.71e-4,-0.0215 c 0,0 -10e-4,0.008 3.71e-4,0.0215 z"
         style="font-style:normal;font-weight:normal;font-size:16.63940239px;line-height:53.1412735px;font-family:sans-serif;letter-spacing:20.79925346px;word-spacing:0px;fill:#000000;fill-opacity:1;stroke:none;stroke-width:0.26458338px;stroke-linecap:butt;stroke-linejoin:miter;stroke-opacity:1" />
      <path
         inkscape:connector-curvature="0"
         id="rect920"
         d="m 56.28843,189.15445 h 0.33882 v 18.443 h -0.33882 z"
         style="font-style:normal;font-weight:normal;font-size:16.63940239px;line-height:53.1412735px;font-family:sans-serif;letter-spacing:20.79925346px;word-spacing:0px;opacity:1;fill:#000000;fill-opacity:1;fill-rule:evenodd;stroke:none;stroke-width:3.26500034;stroke-linecap:round;stroke-linejoin:miter;stroke-miterlimit:4;stroke-dasharray:none;stroke-opacity:1;paint-order:stroke markers fill" />
      <rect
         transform="matrix(0.99989412,-0.01455171,0.01458796,0.99989359,0,0)"
         ry="0.2164835"
         y="189.73236"
         x="49.442776"
         height="11.863298"
         width="0.43350583"
         id="rect927"
         style="font-style:normal;font-weight:normal;font-size:16.63940239px;line-height:53.1412735px;font-family:sans-serif;letter-spacing:20.79925346px;word-spacing:0px;opacity:1;fill:#000000;fill-opacity:1;fill-rule:evenodd;stroke:none;stroke-width:3.2650001;stroke-linecap:round;stroke-linejoin:miter;stroke-miterlimit:4;stroke-dasharray:none;stroke-opacity:1;paint-order:stroke markers fill" />
      <path
         inkscape:connector-curvature="0"
         id="rect929"
         d="m 75.18068,192.47655 -6.84945,3.1174 v 11.31337 l 5.78296,-2.42849 1.06649,-0.48536 z"
         style="font-style:normal;font-weight:normal;font-size:16.63940239px;line-height:53.1412735px;font-family:sans-serif;letter-spacing:20.79925346px;word-spacing:0px;opacity:1;fill:#ffffff;fill-opacity:1;fill-rule:evenodd;stroke:none;stroke-width:3.26499939;stroke-linecap:round;stroke-linejoin:miter;stroke-miterlimit:4;stroke-dasharray:none;stroke-opacity:1;paint-order:stroke markers fill" />
      <path
         sodipodi:nodetypes="ccccc"
         inkscape:connector-curvature="0"
         id="rect931"
         d="m 75.180651,192.53957 6.807539,3.59599 v 11.51692 l -6.807539,-3.59598 z"
         style="font-style:normal;font-weight:normal;font-size:16.63940239px;line-height:53.1412735px;font-family:sans-serif;letter-spacing:20.79925346px;word-spacing:0px;opacity:1;fill:#000000;fill-opacity:1;fill-rule:evenodd;stroke:none;stroke-width:3.26500034;stroke-linecap:round;stroke-linejoin:miter;stroke-miterlimit:4;stroke-dasharray:none;stroke-opacity:1;paint-order:stroke markers fill" />
      <ellipse
         ry="0.64945036"
         rx="0.37603548"
         cy="201.28131"
         cx="80.445145"
         id="path940"
         style="font-style:normal;font-weight:normal;font-size:16.63940239px;line-height:53.1412735px;font-family:sans-serif;letter-spacing:20.79925346px;word-spacing:0px;opacity:1;fill:#ffffff;fill-opacity:1;fill-rule:evenodd;stroke:none;stroke-width:3.26500034;stroke-linecap:round;stroke-linejoin:miter;stroke-miterlimit:4;stroke-dasharray:none;stroke-opacity:1;paint-order:stroke markers fill" />
    </g>
  </g>
</svg>
