<?xml version="1.0" encoding="UTF-8" standalone="no"?>
<!-- Created with Inkscape (http://www.inkscape.org/) -->

<svg
   xmlns:dc="http://purl.org/dc/elements/1.1/"
   xmlns:cc="http://creativecommons.org/ns#"
   xmlns:rdf="http://www.w3.org/1999/02/22-rdf-syntax-ns#"
   xmlns:svg="http://www.w3.org/2000/svg"
   xmlns="http://www.w3.org/2000/svg"
   xmlns:sodipodi="http://sodipodi.sourceforge.net/DTD/sodipodi-0.dtd"
   xmlns:inkscape="http://www.inkscape.org/namespaces/inkscape"
   width="22.854221mm"
   height="21.689938mm"
   viewBox="0 0 22.854221 21.689938"
   version="1.1"
   id="svg8"
   inkscape:version="0.92.0 r15299"
   sodipodi:docname="MEASURE.svg"
   inkscape:export-filename="C:\Users\WSBARATA02\Desktop\coba_webgis\image\LAYER.png"
   inkscape:export-xdpi="29.148296"
   inkscape:export-ydpi="29.148296">
  <defs
     id="defs2" />
  <sodipodi:namedview
     id="base"
     pagecolor="#ffffff"
     bordercolor="#666666"
     borderopacity="1.0"
     inkscape:pageopacity="0.0"
     inkscape:pageshadow="2"
     inkscape:zoom="3.959798"
     inkscape:cx="31.264136"
     inkscape:cy="17.043285"
     inkscape:document-units="mm"
     inkscape:current-layer="layer1"
     showgrid="false"
     fit-margin-top="0"
     fit-margin-left="0"
     fit-margin-right="0"
     fit-margin-bottom="0"
     inkscape:window-width="1920"
     inkscape:window-height="1017"
     inkscape:window-x="-8"
     inkscape:window-y="-8"
     inkscape:window-maximized="1" />
  <metadata
     id="metadata5">
    <rdf:RDF>
      <cc:Work
         rdf:about="">
        <dc:format>image/svg+xml</dc:format>
        <dc:type
           rdf:resource="http://purl.org/dc/dcmitype/StillImage" />
        <dc:title />
      </cc:Work>
    </rdf:RDF>
  </metadata>
  <g
     inkscape:label="Layer 1"
     inkscape:groupmode="layer"
     id="layer1"
     transform="translate(-45.835709,-93.163313)">
    <path
       inkscape:connector-curvature="0"
       id="path4496"
       d="m 56.85509,113.57627 c -0.200243,-0.091 -1.032025,-0.45983 -1.848402,-0.81973 -2.160258,-0.95232 -3.076094,-1.35732 -4.985085,-2.20446 -1.651206,-0.73276 -3.468974,-1.54458 -3.668001,-1.63814 l -0.111227,-0.0523 0.06922,-0.04 c 0.03807,-0.0219 0.80241,-0.36837 1.698534,-0.76974 0.896125,-0.40136 1.644905,-0.75087 1.663957,-0.77666 0.02776,-0.0375 0.02665,-0.0559 -0.0056,-0.0922 -0.05355,-0.0601 -0.702257,-0.3621 -2.202439,-1.02507 -0.681588,-0.30121 -1.23926,-0.55682 -1.23927,-0.56801 -9e-6,-0.0112 0.12286,-0.0733 0.273044,-0.13781 0.592087,-0.25468 3.005485,-1.33648 3.086075,-1.38331 0.04889,-0.0284 0.08561,-0.0749 0.08561,-0.10824 0,-0.0718 -0.184413,-0.16234 -1.918419,-0.94167 -1.645716,-0.73963 -1.525268,-0.67959 -1.451738,-0.72382 0.0589,-0.0354 1.454142,-0.66309 2.599989,-1.16962 0.941576,-0.41624 0.994216,-0.44313 0.994216,-0.50792 0,-0.0696 -0.06955,-0.11195 -0.450577,-0.27482 -0.64432,-0.27541 -2.785619,-1.23794 -2.807105,-1.261824 -0.0293,-0.03248 0.06148,-0.07497 2.529524,-1.182931 4.106316,-1.843354 8.010417,-3.540923 8.143479,-3.540923 0.08744,0 1.409901,0.573418 5.310745,2.302742 2.425796,1.075404 5.183217,2.313741 5.280291,2.371343 l 0.07158,0.04249 -0.140029,0.06867 c -0.07702,0.03776 -0.41099,0.188712 -0.742162,0.335411 -1.651878,0.731702 -2.290377,1.021252 -2.337679,1.060122 -0.02856,0.0235 -0.04485,0.0634 -0.03619,0.0888 0.01912,0.056 0.469012,0.2706 2.067826,0.98639 0.671159,0.30047 1.294994,0.58369 1.386301,0.62938 0.164642,0.0824 0.165434,0.0834 0.096,0.12457 -0.03851,0.0228 -0.750563,0.34675 -1.582344,0.71983 -1.987164,0.8913 -1.871681,0.8298 -1.755926,0.93515 0.03265,0.0298 0.809732,0.3903 1.726831,0.80131 0.917099,0.41099 1.66745,0.7573 1.66745,0.76958 0,0.0124 -0.532464,0.26035 -1.183256,0.5513 -1.67068,0.74689 -2.183182,0.98574 -2.231435,1.03997 -0.03701,0.0416 -0.03711,0.0528 -8.49e-4,0.0935 0.02265,0.0255 0.772061,0.37392 1.665363,0.77437 1.732517,0.77663 1.77357,0.79625 1.729639,0.82677 -0.02891,0.0201 -1.53566,0.69448 -3.634221,1.6266 -1.370034,0.60853 -1.602855,0.71153 -3.552368,1.5714 -1.819236,0.80242 -2.488203,1.09784 -3.223018,1.4233 -0.306917,0.13594 -0.584178,0.24588 -0.616134,0.24431 -0.03196,-0.002 -0.221937,-0.0772 -0.422181,-0.16825 z m 1.00822,-1.71621 c 1.152354,-0.49732 5.935824,-2.61264 6.406394,-2.833 0.295283,-0.13827 0.293341,-0.1862 -0.014,-0.34552 -0.127078,-0.0659 -0.498081,-0.23518 -0.824452,-0.37622 l -0.593403,-0.25644 -2.745057,1.21241 c -1.509781,0.66682 -2.770008,1.2124 -2.800501,1.2124 -0.03049,0 -0.443805,-0.17212 -0.918468,-0.38252 -4.116978,-1.8248 -4.629342,-2.04565 -4.693802,-2.02331 -0.137786,0.0478 -0.921758,0.40719 -1.244367,0.57053 -0.33332,0.16878 -0.384157,0.21629 -0.307729,0.28759 0.09887,0.0923 6.291854,2.81372 6.963301,3.06001 0.269968,0.099 0.239214,0.10407 0.772086,-0.12593 z m -0.289773,-3.16776 c 0.577334,-0.22533 2.442957,-1.03339 4.714736,-2.04212 1.93306,-0.85834 2.175474,-0.97058 2.190364,-1.0142 0.0087,-0.0256 -0.0082,-0.0736 -0.03769,-0.10678 -0.06245,-0.0703 -1.501924,-0.72146 -1.594616,-0.72146 -0.03441,0 -0.715962,0.28825 -1.514567,0.64056 -0.798605,0.35229 -2.034297,0.89762 -2.745983,1.21185 l -1.293974,0.5713 -1.198568,-0.53164 c -1.517731,-0.67319 -1.765614,-0.78263 -3.13099,-1.38222 -0.916436,-0.40243 -1.14572,-0.49189 -1.260275,-0.49171 -0.111329,1.8e-4 -0.24473,0.0499 -0.650832,0.24227 -0.742471,0.35181 -0.945516,0.46747 -0.945516,0.53863 0,0.0702 0.382957,0.24699 3.598784,1.66152 2.497246,1.09847 3.495804,1.53046 3.547062,1.53454 0.01776,9.4e-4 0.162695,-0.0483 0.32207,-0.11049 z m 0.07395,-3.27461 c 0.607238,-0.25469 5.098151,-2.23586 6.414525,-2.82978 0.220791,-0.0996 0.408405,-0.20153 0.41692,-0.22646 0.0085,-0.025 -0.0023,-0.0653 -0.02397,-0.0897 -0.04599,-0.0517 -0.795057,-0.40751 -1.356946,-0.64459 -0.359099,-0.15151 -0.39845,-0.16177 -0.50197,-0.1309 -0.174589,0.052 -1.505456,0.63081 -4.695028,2.04164 l -0.606438,0.26824 -2.110153,-0.92825 c -1.160583,-0.51054 -2.373167,-1.03918 -2.694629,-1.17476 l -0.584476,-0.2465 -0.311719,0.12156 c -0.403282,0.15727 -1.419849,0.63699 -1.470517,0.69394 -0.09626,0.10824 -0.267783,0.0236 2.811158,1.38684 2.858494,1.26564 4.270411,1.86728 4.391178,1.87113 0.02763,8.8e-4 0.172561,-0.0497 0.322069,-0.11242 z m -0.18458,-3.0327 c 0.03539,-0.0168 0.713374,-0.31313 1.506646,-0.65861 0.793273,-0.34549 1.751082,-0.76455 2.128463,-0.93123 0.377382,-0.16667 0.875191,-0.3865 1.106241,-0.48847 1.416878,-0.625384 2.486168,-1.1048 2.560606,-1.148072 0.126714,-0.07362 0.106788,-0.133144 -0.07507,-0.224184 -0.228115,-0.114183 -2.765294,-1.250387 -4.389956,-1.965914 -2.433392,-1.071706 -2.935411,-1.289312 -2.974449,-1.289312 -0.126214,0 -6.190201,2.651795 -7.3598,3.218461 -0.232985,0.112879 -0.284829,0.18225 -0.182302,0.243921 0.141943,0.08542 4.898237,2.18434 6.32964,2.79327 1.161142,0.49397 1.217567,0.51279 1.349976,0.45014 z"
       style="fill:#000000;stroke-width:1" />
  </g>
</svg>
